<?xml version="1.0" standalone="no"?>
<!DOCTYPE svg PUBLIC "-//W3C//DTD SVG 20010904//EN"
 "http://www.w3.org/TR/2001/REC-SVG-20010904/DTD/svg10.dtd">
<svg version="1.0" xmlns="http://www.w3.org/2000/svg"
 width="736.000000pt" height="426.000000pt" viewBox="0 0 736.000000 426.000000"
 preserveAspectRatio="xMidYMid meet">

<g transform="translate(0.000000,426.000000) scale(0.100000,-0.100000)"
fill="#000000" stroke="none">
<path d="M3377 4067 c-31 -34 -57 -66 -57 -72 -1 -5 -7 1 -15 15 -12 20 -14
22 -15 7 0 -17 -3 -16 -30 6 -27 23 -36 25 -86 20 -42 -5 -58 -2 -65 8 -7 11
-16 7 -41 -21 -19 -20 -33 -29 -36 -22 -8 24 -20 11 -26 -28 -3 -22 -11 -40
-16 -40 -6 0 -10 4 -10 9 0 10 -219 125 -226 118 -2 -2 15 -36 38 -76 37 -62
46 -71 66 -66 29 7 29 -13 -1 -24 -30 -12 -60 -57 -61 -93 -1 -15 -4 -28 -8
-28 -11 0 -10 13 3 66 11 43 11 45 -31 98 -64 84 -72 88 -66 35 2 -24 5 -67 5
-96 1 -40 5 -53 19 -57 9 -2 4 -4 -13 -3 -22 2 -32 -4 -42 -23 -7 -14 -13 -33
-13 -42 0 -15 -16 -31 -66 -66 -11 -7 -13 -10 -6 -7 15 7 15 6 1 -33 -13 -37
-32 -33 -23 4 3 13 2 24 -4 24 -17 0 -22 -54 -7 -66 12 -9 9 -21 -15 -73 -40
-84 -127 -378 -145 -486 -3 -22 -12 -69 -20 -105 -29 -139 -40 -290 -40 -545
0 -239 3 -273 28 -416 15 -86 27 -168 27 -183 0 -14 9 -52 20 -83 15 -42 17
-60 9 -70 -7 -8 -9 -30 -4 -58 l6 -46 36 7 c30 6 34 4 31 -10 -2 -13 -39 -42
-66 -52 -1 0 4 -17 12 -36 11 -26 23 -37 46 -41 16 -4 30 -12 30 -19 0 -17 63
-148 71 -148 7 0 13 30 25 120 3 25 12 59 19 75 7 17 16 42 20 56 6 23 2 27
-34 38 -39 11 -58 41 -26 41 24 0 13 86 -14 107 -95 78 -155 735 -101 1113 28
206 87 508 120 625 47 162 52 175 76 175 13 0 26 11 36 34 14 29 15 35 2 48
-8 8 -12 22 -8 31 10 28 21 19 28 -23 7 -45 10 -46 98 -28 53 11 62 10 103
-10 44 -21 45 -23 45 -69 0 -29 -6 -53 -17 -65 -15 -17 -15 -19 7 -38 28 -25
36 -25 45 -2 7 16 8 15 15 -3 7 -19 7 -19 14 3 10 31 38 24 47 -11 6 -24 4
-30 -16 -39 -14 -6 -22 -15 -19 -20 3 -5 0 -9 -7 -7 -34 4 -41 -1 -34 -29 6
-31 -7 -48 -62 -76 -37 -19 -47 -20 -38 -6 8 13 -61 100 -80 100 -25 0 -44
-29 -66 -103 -13 -39 -30 -80 -38 -90 -13 -15 -13 -18 -1 -15 16 4 34 -29 51
-93 12 -45 12 -47 -24 -94 -21 -26 -37 -52 -37 -56 0 -5 -4 -9 -9 -9 -4 0 -14
27 -21 60 -20 96 -41 74 -35 -37 1 -35 -1 -63 -5 -63 -4 0 -13 18 -20 40 -7
22 -19 45 -27 51 -11 9 -13 -4 -13 -77 -1 -49 -7 -106 -15 -128 -9 -26 -11
-46 -4 -63 15 -41 11 -58 -36 -135 l-45 -74 19 -79 c25 -101 53 -283 45 -296
-3 -5 -7 -36 -8 -68 -2 -31 -10 -68 -18 -82 -18 -28 -13 -99 7 -99 11 0 31
-37 55 -103 5 -16 14 -26 18 -23 5 3 15 -6 22 -19 7 -14 20 -25 29 -25 9 0 26
-3 39 -6 16 -5 22 -2 22 10 0 24 13 13 64 -54 50 -65 61 -98 26 -80 -15 8 -21
6 -30 -9 -13 -26 -13 -70 1 -110 9 -25 14 -30 21 -19 7 10 8 8 4 -5 -7 -23 11
-60 26 -51 7 5 9 -1 5 -18 -5 -19 -2 -28 10 -32 9 -4 13 -9 10 -13 -4 -3 -18
2 -33 12 -19 12 -29 14 -37 6 -8 -8 -8 -11 0 -11 7 0 14 -9 18 -19 3 -11 12
-18 19 -15 7 3 18 -2 25 -10 6 -7 36 -24 66 -36 l53 -22 -4 -51 c-2 -27 -6
-52 -7 -54 -6 -5 -127 145 -127 157 0 6 -4 9 -8 6 -10 -6 -65 48 -57 56 3 2
-2 5 -10 5 -27 0 -16 -22 36 -67 28 -25 75 -75 105 -111 l54 -67 6 -93 c4 -57
2 -116 -5 -149 -7 -30 -12 -64 -12 -74 0 -10 -7 -28 -15 -40 -18 -27 -18 -42
1 -26 24 20 35 78 45 233 5 81 13 153 18 160 5 7 13 27 17 45 4 18 18 60 31
94 14 33 23 72 21 87 -4 31 -12 15 -22 -41 -9 -56 -27 -47 -19 10 l6 47 -69
65 c-38 36 -92 76 -121 90 -55 27 -56 28 -43 49 7 11 13 11 32 0 22 -11 123
-87 207 -156 33 -26 33 -26 51 -7 11 10 22 30 26 44 7 22 6 23 -7 12 -14 -11
-19 -6 -38 33 -18 38 -22 61 -21 141 1 53 4 101 8 107 3 5 17 -12 31 -39 32
-64 37 -51 46 131 10 200 21 198 55 -13 13 -75 25 -141 28 -146 4 -5 11 1 17
15 9 21 11 17 16 -36 5 -56 6 -59 20 -39 29 39 37 35 74 -36 21 -39 41 -68 45
-65 5 2 11 32 15 65 6 53 10 62 32 70 27 10 40 5 119 -46 22 -15 32 -18 23 -9
-15 16 -15 20 -1 42 10 15 14 35 10 56 -3 18 1 46 8 62 13 28 14 28 12 5 -4
-49 50 -34 161 45 23 17 42 36 42 43 0 6 3 12 8 12 4 0 8 28 9 63 0 34 6 75
12 91 17 42 5 44 -16 1 l-19 -36 -30 38 c-17 21 -33 52 -37 69 -5 26 -3 30 13
29 11 -1 28 -10 40 -20 11 -10 20 -13 20 -7 0 7 5 12 10 12 6 0 10 -10 10 -22
0 -17 3 -20 9 -9 6 9 2 34 -10 69 -28 83 -24 252 6 252 14 0 121 -117 161
-176 14 -20 45 -72 71 -117 25 -45 52 -87 59 -95 20 -19 37 -90 36 -144 -2
-62 12 -98 39 -98 12 0 19 -5 16 -12 -2 -8 -19 -12 -41 -11 -35 2 -36 2 -36
-36 0 -25 7 -44 20 -56 11 -10 20 -13 20 -7 0 6 -4 14 -10 17 -5 3 -10 19 -10
35 0 26 3 28 33 27 31 -2 32 -3 28 -41 -2 -30 1 -43 15 -53 10 -7 21 -13 24
-13 9 0 34 73 31 93 -1 9 2 17 8 17 6 0 8 7 4 16 -4 10 0 22 8 28 23 17 30 44
13 50 -9 3 -14 17 -12 34 3 48 -119 284 -201 387 -39 50 -92 117 -119 150 -26
32 -66 78 -89 101 -25 24 -43 51 -43 63 0 14 -20 41 -55 73 -51 46 -55 54 -49
82 4 17 12 38 18 48 8 14 7 21 -8 35 -10 10 -15 12 -11 5 4 -8 2 -34 -5 -58
l-13 -45 -28 27 c-39 37 -47 95 -21 153 l20 43 7 -33 c4 -19 14 -43 23 -54
l14 -20 -8 20 c-5 11 -9 52 -9 92 0 70 0 71 -20 55 -11 -9 -26 -23 -33 -32
-12 -13 -13 -9 -9 25 2 22 10 67 17 100 12 61 9 140 -6 155 -5 5 -9 -39 -9
-100 0 -101 -2 -110 -24 -134 -14 -14 -27 -26 -30 -26 -11 0 -52 71 -46 79 2
5 -3 15 -13 22 -15 13 -16 12 -3 -3 20 -26 5 -22 -40 10 -41 29 -46 46 -32
126 8 50 51 79 106 72 43 -5 45 3 26 80 -14 53 -47 76 -79 56 -27 -17 -33 -2
-33 87 0 97 22 219 42 234 10 8 16 27 16 56 -1 26 4 45 12 48 20 8 15 22 -6
16 -24 -6 -30 15 -38 140 -3 53 -9 97 -13 97 -7 0 -45 -109 -44 -126 1 -8 -5
-8 -22 0 -13 6 -19 15 -15 21 9 12 35 154 29 160 -2 2 -30 -24 -61 -58z m-161
-232 c-9 -9 -16 -20 -16 -24 0 -4 -18 -16 -40 -26 -22 -10 -42 -26 -45 -36 -3
-9 -13 -23 -21 -30 -12 -10 -18 -9 -32 6 -16 16 -16 17 4 7 18 -10 23 -7 35
14 7 14 30 34 50 45 21 10 43 32 50 48 8 18 17 27 23 21 5 -5 2 -15 -8 -25z
m62 -35 c14 0 42 -40 41 -60 0 -8 -5 -3 -10 11 -6 15 -23 32 -39 39 -16 6 -31
19 -35 28 -5 14 -4 14 13 -1 10 -9 24 -17 30 -17z m-573 -30 c2 -24 -1 -30
-16 -30 -19 0 -24 10 -19 40 2 16 21 32 29 25 2 -3 5 -18 6 -35z m-32 -67 c-3
-7 -14 -13 -25 -13 -16 0 -18 3 -9 13 6 8 17 14 25 14 8 0 12 -6 9 -14z m7
-63 c-6 -12 -14 -19 -17 -17 -2 3 1 15 7 27 6 12 14 19 17 17 2 -3 -1 -15 -7
-27z m739 -50 c-6 -39 -9 -116 -7 -171 l3 -98 -28 5 c-42 7 -77 33 -77 57 l0
20 -22 -21 c-13 -11 -39 -22 -58 -24 -39 -3 -57 -29 -67 -96 -3 -20 -17 -50
-32 -66 -22 -24 -23 -28 -7 -22 19 6 19 6 3 -12 -9 -10 -17 -28 -17 -40 0 -13
-6 -22 -16 -22 -8 0 -12 -4 -9 -10 3 -5 0 -7 -8 -4 -8 3 -17 -3 -21 -13 -4
-10 -2 -19 3 -21 13 -4 15 -32 2 -32 -17 0 -32 55 -22 81 5 13 10 18 10 12 2
-29 44 0 56 37 7 23 7 24 -10 10 -17 -13 -18 -13 -10 0 4 8 15 23 24 33 23 28
72 171 53 155 -13 -11 -15 -9 -9 22 6 31 5 33 -7 18 -16 -22 -26 -23 -26 -2 0
8 -4 12 -10 9 -10 -6 -18 22 -18 63 -1 30 11 28 51 -8 40 -35 53 -37 80 -12
22 19 18 8 -15 -40 l-19 -27 35 3 c20 1 44 10 54 19 10 9 24 17 31 17 7 0 11
6 8 13 -2 6 -9 11 -15 10 -5 -1 -16 4 -22 13 -10 12 -9 18 5 34 21 23 38 25
54 6 11 -13 61 -20 61 -8 0 3 -7 14 -16 24 -10 10 -19 40 -22 66 -4 45 -2 50
28 76 18 15 34 25 37 23 2 -2 -1 -37 -8 -77z m-302 19 c15 -6 37 -13 47 -15
11 -2 31 -15 46 -29 23 -22 29 -24 39 -11 7 8 9 21 5 28 -4 7 -3 10 1 5 5 -4
17 0 27 10 32 29 29 7 -6 -43 -19 -27 -42 -66 -52 -86 -9 -21 -20 -38 -24 -38
-5 0 -14 17 -21 37 -7 22 -32 56 -61 81 -65 59 -66 86 -1 61z m-102 -219 c-4
-6 5 -10 20 -10 25 0 26 -2 21 -37 -16 -108 -17 -152 -6 -173 8 -15 8 -20 1
-16 -6 4 -11 1 -11 -6 -1 -7 -7 -2 -15 12 -16 27 -20 54 -5 30 6 -10 9 -5 8
20 0 19 3 63 7 98 7 59 7 62 -14 62 -21 0 -27 10 -14 23 10 10 15 8 8 -3z m92
-32 c-3 -8 -6 -5 -6 6 -1 11 2 17 5 13 3 -3 4 -12 1 -19z m109 -49 c-23 -18
-27 -28 -24 -62 2 -34 -1 -42 -22 -55 -22 -12 -23 -12 -7 1 11 9 17 28 17 56
0 32 6 48 23 62 12 10 26 18 31 19 5 0 -3 -10 -18 -21z m270 -299 c27 -17 37
-35 59 -100 24 -71 25 -84 16 -136 -6 -32 -13 -59 -16 -62 -7 -8 -43 27 -64
62 -30 48 -61 256 -39 256 6 0 25 -9 44 -20z m-380 -68 l32 -38 -20 -25 c-15
-19 -17 -20 -9 -3 8 17 5 28 -15 58 -24 35 -27 37 -44 21 -10 -9 -24 -30 -30
-46 -7 -16 -16 -26 -21 -23 -12 7 48 94 64 94 7 0 26 -17 43 -38z m-316 -14
c-1 -106 -35 -183 -129 -288 -50 -56 -52 -42 -16 84 20 70 23 90 13 105 -9 15
-9 25 -1 43 9 18 12 19 12 6 1 -24 18 -23 26 1 7 24 70 91 84 91 6 0 11 -19
11 -42z m399 -25 c-33 -38 -62 -63 -74 -62 -9 0 84 88 94 89 3 0 -6 -12 -20
-27z m-199 -44 c16 -28 9 -24 -35 23 -38 40 -39 40 -7 19 17 -12 37 -31 42
-42z m92 11 c9 -22 13 -40 8 -40 -4 0 -13 14 -19 32 -11 30 -12 31 -26 12 -18
-23 -20 -11 -3 16 17 27 21 26 40 -20z m-224 -61 c36 -53 51 -110 52 -190 0
-61 -22 -123 -34 -94 -3 9 -11 13 -17 9 -8 -5 -9 -3 -4 6 10 16 -15 32 -31 19
-8 -6 -8 -25 -1 -66 8 -47 7 -58 -5 -67 -10 -7 -18 -37 -23 -76 -7 -65 -15
-85 -54 -129 -11 -13 -19 -27 -16 -31 2 -4 -4 -15 -15 -25 -12 -11 -20 -31
-20 -51 0 -18 -3 -40 -6 -49 -9 -22 -46 59 -46 101 0 47 39 178 78 263 l35 76
-12 92 -12 91 30 49 c17 26 37 74 44 106 11 45 15 53 20 35 3 -13 20 -44 37
-69z m-239 -33 c-7 -17 -19 -39 -28 -49 -22 -27 -34 1 -21 55 5 24 12 57 16
73 l6 30 20 -39 c17 -33 18 -42 7 -70z m558 66 c-10 -10 -17 -28 -17 -40 0
-12 -4 -22 -9 -22 -15 0 -7 54 9 67 23 19 35 15 17 -5z m94 0 c-5 -10 -18 -25
-28 -33 -12 -10 -11 -5 6 19 24 35 38 43 22 14z m-301 -20 c0 -15 -2 -15 -10
-2 -13 20 -13 33 0 25 6 -3 10 -14 10 -23z m518 -78 c52 -60 57 -80 43 -154
-11 -57 -11 -59 18 -103 57 -84 74 -135 76 -227 1 -60 -3 -90 -13 -102 -12
-15 -17 -14 -58 14 -39 26 -43 32 -33 51 9 17 9 22 -2 26 -22 7 -71 63 -85 98
-8 18 -14 52 -14 77 0 31 -5 46 -16 50 -11 4 -14 13 -10 29 4 12 8 27 9 32 2
6 5 15 9 20 9 16 2 59 -10 63 -7 2 -24 -6 -38 -17 -15 -12 -29 -19 -32 -16 -3
2 -4 31 -4 64 1 64 16 102 65 165 l31 39 10 -30 c6 -17 30 -53 54 -79z m-355
59 c-7 -3 -10 -10 -7 -17 8 -21 -20 -110 -44 -141 -13 -17 -21 -22 -18 -12 3
10 0 17 -8 17 -8 0 -16 -5 -18 -11 -8 -24 -37 41 -40 88 -3 47 14 74 20 33 2
-11 6 -20 10 -21 4 0 15 -2 25 -4 12 -2 21 5 28 23 14 36 39 63 52 55 8 -5 7
-8 0 -10z m-189 -27 c-6 -16 -24 -13 -24 5 0 6 5 7 10 4 6 -3 10 -1 10 6 0 7
2 10 5 7 3 -3 3 -13 -1 -22z m321 14 c-3 -5 -11 -10 -16 -10 -6 0 -7 5 -4 10
3 6 11 10 16 10 6 0 7 -4 4 -10z m-293 -17 c-6 -3 -9 -10 -6 -15 4 -7 2 -8 -5
-4 -9 6 -9 11 0 22 6 8 15 12 18 8 3 -4 0 -9 -7 -11z m228 5 c0 -5 5 -6 10 -3
6 3 10 4 10 1 0 -3 -9 -10 -19 -15 -15 -8 -20 -7 -24 8 -2 10 1 18 9 18 8 0
14 -4 14 -9z m-130 -18 c0 -5 -7 -10 -15 -10 -8 0 -15 5 -15 10 0 6 7 10 15
10 8 0 15 -4 15 -10z m100 6 c0 -2 -7 -7 -16 -10 -8 -3 -12 -2 -9 4 6 10 25
14 25 6z m65 -46 c-3 -5 -11 -10 -16 -10 -6 0 -7 5 -4 10 3 6 11 10 16 10 6 0
7 -4 4 -10z m-649 -212 c4 -38 11 -71 15 -74 5 -3 9 0 9 6 0 16 66 95 95 114
24 16 25 15 31 -9 4 -18 -5 -48 -34 -107 -22 -46 -46 -106 -53 -135 -7 -29
-16 -50 -21 -47 -4 3 -8 -22 -8 -55 0 -34 -3 -61 -7 -61 -5 0 -17 -18 -27 -40
-34 -72 -50 -45 -34 60 9 58 8 78 -4 108 -8 20 -26 83 -39 138 l-25 102 40 63
c40 62 40 62 48 34 4 -15 10 -59 14 -97z m772 55 c-25 -27 -65 -77 -88 -113
-37 -59 -41 -69 -35 -109 8 -52 -9 -49 -19 4 -6 28 -1 46 21 87 28 52 140 178
158 178 5 0 -12 -21 -37 -47z m440 0 c7 -3 -19 -186 -34 -244 -8 -31 -14 -74
-14 -95 0 -21 -8 -46 -17 -58 -18 -21 -18 -21 3 -3 29 24 39 9 13 -19 -26 -28
-38 -19 -63 48 -13 33 -17 61 -12 95 l5 48 -13 -40 c-14 -44 -17 -40 -35 43
-6 30 -29 84 -51 122 -22 38 -40 75 -40 84 0 23 129 -111 137 -142 6 -25 8
-23 20 23 7 28 13 58 13 68 0 10 7 25 15 33 8 9 15 32 15 51 l0 36 28 -24 c15
-13 29 -25 30 -26z m-408 -8 c0 -4 -7 -20 -16 -37 -11 -21 -19 -27 -26 -20 -8
8 -6 18 6 36 15 23 36 35 36 21z m-495 -183 c26 -50 32 -69 24 -83 -16 -31
-30 -22 -24 14 4 24 0 38 -16 57 -11 14 -18 19 -14 12 10 -19 -5 -56 -17 -44
-8 8 -7 20 2 41 10 25 9 38 -4 77 -9 26 -16 61 -15 78 0 23 4 16 15 -28 8 -32
30 -88 49 -124z m-22 127 c4 -16 3 -18 -9 -8 -7 6 -11 15 -8 20 8 13 11 11 17
-12z m456 -132 c-11 -19 -11 -18 -30 2 -24 25 -24 54 -2 88 l17 26 13 -48 c8
-34 9 -54 2 -68z m-429 72 c0 -11 -4 -17 -10 -14 -5 3 -10 13 -10 21 0 8 5 14
10 14 6 0 10 -9 10 -21z m215 -39 c3 -5 -10 -3 -29 5 -31 13 -36 13 -59 -5
-40 -31 -45 -23 -7 9 32 27 37 28 62 15 15 -8 29 -18 33 -24z m-47 -81 c-3 -8
-7 -3 -11 10 -4 17 -3 21 5 13 5 -5 8 -16 6 -23z m132 1 c0 -9 -51 -40 -67
-40 -6 0 56 48 65 50 1 0 2 -4 2 -10z m-224 -21 c19 -22 19 -22 -3 -8 -13 8
-23 17 -23 21 0 12 6 9 26 -13z m129 -10 c15 -7 11 -8 -16 -4 -19 3 -38 2 -42
-1 -9 -10 12 -44 26 -43 9 0 9 2 0 6 -22 8 -15 32 7 26 16 -4 19 -11 14 -32
-9 -36 -29 -57 -39 -40 -5 7 -4 10 2 6 6 -4 14 0 17 9 4 11 2 15 -6 11 -8 -2
-21 11 -31 30 -9 19 -13 32 -8 29 5 -4 12 -2 16 4 8 12 33 12 60 -1z m164
-144 c0 -19 -1 -18 -9 2 -10 26 -50 51 -50 32 0 -7 -2 -10 -5 -7 -3 3 -3 12 1
21 5 15 9 14 34 -6 16 -12 29 -31 29 -42z m-354 5 c-9 -10 -21 -34 -25 -52 -7
-27 -8 -29 -9 -9 -1 24 39 94 48 85 2 -2 -4 -13 -14 -24z m155 15 c0 -12 -19
-12 -23 0 -4 9 -1 12 9 8 7 -3 14 -7 14 -8z m141 -48 c-10 -9 -11 -8 -5 6 3
10 9 15 12 12 3 -3 0 -11 -7 -18z m-251 -22 c14 -19 14 -19 -2 -6 -10 7 -18
18 -18 24 0 6 1 8 3 6 1 -2 9 -13 17 -24z m313 -49 c-50 -58 -61 -83 -57 -127
l4 -44 -11 43 c-10 42 -9 47 25 98 20 29 36 64 37 76 0 23 0 23 10 -1 7 -19 5
-29 -8 -45z m-188 -25 c0 -30 -3 -37 -12 -29 -9 7 -13 7 -13 -1 0 -26 -39 -9
-60 26 -13 23 -16 32 -6 24 8 -7 18 -21 21 -32 9 -27 30 -24 43 6 6 14 8 24 4
24 -19 -3 -22 3 -11 22 16 30 33 9 34 -40z m-135 -28 c19 -28 24 -46 22 -90
-1 -31 -6 -62 -10 -69 -4 -8 -6 17 -4 54 4 65 3 70 -32 115 -20 26 -28 42 -18
36 10 -6 29 -27 42 -46z m205 27 c-9 -16 -18 -30 -21 -30 -2 0 2 14 11 30 9
17 18 30 21 30 2 0 -2 -13 -11 -30z m493 -20 c9 -30 1 -113 -13 -140 -7 -14
-22 -33 -31 -41 -14 -11 -13 -5 5 24 21 35 22 39 7 56 -18 20 -21 47 -6 56 8
5 8 11 0 19 -7 9 -7 23 1 46 11 29 13 31 23 14 5 -11 12 -26 14 -34z m-1098 3
c-1 -5 -9 -24 -20 -43 -16 -30 -19 -32 -20 -12 0 24 20 62 32 62 5 0 8 -3 8
-7z m1661 -55 c6 -13 8 -20 4 -16 -4 4 -14 0 -22 -10 -14 -16 -14 -16 -9 1 3
10 6 25 6 33 0 20 8 17 21 -8z m-40 -71 c-10 -9 -11 -8 -5 6 3 10 9 15 12 12
3 -3 0 -11 -7 -18z m-1528 -60 c2 -9 9 -23 15 -29 15 -15 29 -2 35 32 2 14 5
1 6 -27 1 -57 0 -58 -30 -43 -27 15 -49 63 -48 107 l1 38 9 -30 c5 -16 11 -38
12 -48z m593 -9 c2 -29 6 -78 9 -108 2 -30 0 -62 -5 -70 -7 -10 -10 11 -10 66
0 45 -3 103 -6 130 -4 27 -4 46 0 42 4 -3 9 -30 12 -60z m922 26 c3 -35 10
-44 33 -44 10 0 19 -4 19 -10 0 -5 -13 -10 -30 -10 -25 0 -30 4 -36 34 -5 29
0 56 9 56 2 0 4 -12 5 -26z m-1201 -71 c-3 -10 -5 -2 -5 17 0 19 2 27 5 18 2
-10 2 -26 0 -35z m1330 21 c-3 -3 -12 -4 -19 -1 -8 3 -5 6 6 6 11 1 17 -2 13
-5z m-1763 -87 c59 -61 60 -75 1 -17 -24 24 -46 42 -49 39 -13 -14 -34 -68
-37 -94 -3 -24 0 -30 14 -29 24 2 22 -12 -3 -19 -27 -7 -38 35 -20 77 6 17 17
53 23 80 8 38 12 45 18 30 4 -10 28 -40 53 -67z m1736 54 c0 -4 -11 -6 -25 -3
-14 2 -25 6 -25 8 0 2 11 4 25 4 14 0 25 -4 25 -9z m-1313 -93 c-2 -13 -4 -5
-4 17 -1 22 1 32 4 23 2 -10 2 -28 0 -40z m1270 10 c-3 -8 -6 -5 -6 6 -1 11 2
17 5 13 3 -3 4 -12 1 -19z m-1650 -64 c-3 -3 -12 -4 -19 -1 -8 3 -5 6 6 6 11
1 17 -2 13 -5z m-27 -39 c0 -8 10 -20 23 -26 12 -7 25 -17 29 -23 5 -7 8 -7 8
2 0 7 5 10 10 7 16 -10 11 -41 -11 -66 -11 -13 -17 -18 -13 -10 5 10 3 12 -6
6 -9 -5 -11 -25 -7 -69 5 -52 5 -57 -5 -31 -6 17 -14 32 -18 35 -10 7 -19 50
-11 50 4 0 13 17 19 37 10 33 9 40 -10 60 -23 25 -35 22 -47 -11 -6 -15 -3
-28 10 -45 26 -32 24 -39 -8 -35 -18 2 -20 1 -8 -3 23 -6 35 -21 34 -43 0 -9
-4 -7 -11 7 -6 12 -24 25 -39 28 -30 7 -55 38 -44 55 9 15 25 12 25 -5 0 -8 5
-15 10 -15 6 0 9 3 8 8 -3 13 14 77 24 90 14 17 38 15 38 -3z m297 -86 c11
-11 6 -49 -7 -49 -9 0 -20 25 -20 46 0 17 12 18 27 3z m-287 -130 c0 -11 -4
-17 -10 -14 -5 3 -10 15 -10 26 0 11 5 17 10 14 6 -3 10 -15 10 -26z"/>
<path d="M3177 3569 c11 -13 23 -33 25 -44 4 -22 20 -24 26 -3 3 11 2 11 -6 0
-7 -10 -11 -6 -15 15 -3 15 -16 34 -29 42 l-23 14 22 -24z"/>
<path d="M2581 2294 c0 -11 3 -14 6 -6 3 7 2 16 -1 19 -3 4 -6 -2 -5 -13z"/>
<path d="M2591 2254 c0 -11 3 -14 6 -6 3 7 2 16 -1 19 -3 4 -6 -2 -5 -13z"/>
<path d="M2603 2190 c0 -25 2 -35 4 -22 2 12 2 32 0 45 -2 12 -4 2 -4 -23z"/>
<path d="M4701 4072 c69 -75 99 -97 129 -94 15 2 32 -3 38 -10 9 -11 5 -14
-16 -16 -15 -1 -37 -13 -49 -27 -23 -26 -26 -41 -24 -100 2 -29 1 -29 -14 -10
-12 15 -15 32 -11 65 l6 45 -71 55 c-78 62 -108 77 -67 35 31 -31 150 -257
146 -277 -2 -10 19 -13 90 -13 83 0 95 -2 105 -20 21 -34 23 -69 9 -107 -9
-23 -12 -47 -7 -65 5 -15 7 -37 6 -48 -1 -16 2 -15 21 10 13 16 32 40 43 52
l20 23 33 -26 c29 -23 32 -31 32 -79 0 -30 -5 -57 -10 -60 -6 -4 -8 -11 -5
-16 4 -5 -5 -14 -19 -20 -20 -9 -29 -9 -41 1 -17 14 -21 0 -5 -16 7 -7 6 -33
-4 -82 -13 -57 -13 -77 -3 -106 7 -19 16 -36 22 -38 16 -5 102 112 115 157 16
59 65 104 116 108 45 4 74 15 74 28 0 5 -9 9 -20 9 -11 0 -20 7 -20 15 0 8 4
15 8 15 4 0 13 15 20 34 7 18 21 41 31 50 18 16 21 16 55 -14 l36 -32 0 30 c0
16 -7 49 -15 72 -15 42 -12 80 5 80 5 0 32 -45 60 -99 115 -218 258 -352 437
-406 64 -20 73 -19 73 6 0 22 50 119 62 119 3 0 26 16 50 36 71 60 180 130
291 188 58 30 102 57 98 59 -3 2 -1 2 6 1 7 -2 45 8 84 21 167 57 344 17 477
-109 59 -56 82 -103 82 -169 0 -67 -15 -111 -53 -160 -45 -57 -24 -57 37 1 30
29 60 52 65 52 6 0 11 -12 11 -27 0 -20 -3 -24 -9 -14 -12 18 -43 1 -77 -44
-14 -19 -30 -32 -35 -29 -5 3 -9 0 -9 -6 0 -6 -4 -9 -9 -6 -4 3 -17 -2 -27
-10 -18 -15 -18 -15 9 -11 15 2 27 1 27 -3 0 -11 -52 -23 -59 -13 -10 14 -34
15 -42 1 -5 -7 -6 -28 -3 -45 4 -19 2 -33 -4 -33 -5 0 -24 -30 -42 -67 -18
-38 -38 -71 -44 -75 -8 -6 -8 -8 0 -8 6 0 22 8 35 18 13 11 47 32 74 47 28 16
53 34 57 40 4 5 18 10 30 10 13 0 22 5 21 12 -2 7 4 10 12 7 14 -6 21 19 16
50 -4 20 12 47 25 42 20 -8 57 55 78 133 34 123 3 208 -112 311 -31 28 -60 50
-65 50 -4 0 -38 18 -75 40 -37 23 -103 52 -147 67 -70 22 -98 26 -225 27 -120
1 -150 -2 -171 -15 -89 -59 -264 -218 -368 -336 -55 -63 -69 -73 -97 -73 -66
0 -267 128 -352 225 -20 23 -62 84 -92 134 -30 51 -58 95 -62 97 -5 3 -26 -9
-49 -27 -22 -17 -43 -29 -46 -25 -3 3 2 32 12 63 19 62 21 84 12 149 -7 56 5
73 27 38 10 -14 12 -23 5 -19 -9 6 -10 3 -4 -11 4 -10 13 -40 18 -66 10 -43 9
-50 -10 -70 -11 -13 -29 -36 -39 -53 -17 -28 -15 -27 23 9 23 21 46 35 52 32
10 -6 101 100 101 118 0 4 -12 1 -26 -9 -14 -9 -27 -15 -28 -13 -2 2 -16 57
-32 123 l-29 120 -3 -62 c-2 -35 2 -71 8 -82 12 -24 13 -68 1 -75 -4 -3 -6 5
-4 18 7 32 -23 85 -53 97 -18 6 -24 14 -20 25 3 9 6 17 6 20 0 2 6 1 14 -2 13
-5 26 39 26 89 0 17 -1 17 -17 2 -9 -9 -33 -28 -55 -41 -30 -19 -38 -30 -38
-54 l0 -29 -36 24 c-19 13 -42 21 -50 18 -10 -3 -14 2 -15 18 0 13 -3 18 -6
11 -2 -6 -9 -10 -14 -6 -5 3 -9 -7 -9 -22 0 -15 -3 -24 -7 -21 -3 4 -15 0 -24
-9 -17 -16 -19 -15 -29 10 -5 15 -10 32 -10 37 0 13 34 11 48 -3 7 -7 12 -8
12 -4 0 36 -96 48 -125 16 -10 -12 -26 -18 -35 -15 -20 6 -70 -30 -70 -51 0
-26 -17 -15 -23 15 -6 31 -2 29 -256 107 l-43 14 43 -48z m629 -174 c0 -4 -6
-5 -14 -2 -8 3 -17 -2 -20 -14 -4 -11 -24 -25 -47 -32 -26 -9 -45 -23 -55 -42
-12 -24 -17 -26 -39 -18 -38 15 -30 3 14 -20 22 -11 42 -29 46 -40 4 -12 11
-17 18 -14 7 4 9 4 5 -1 -4 -4 2 -21 13 -36 41 -58 23 -60 -113 -14 -70 23
-142 54 -160 67 -18 14 -43 28 -54 32 -12 3 -30 16 -40 28 -19 21 -19 21 4 9
13 -7 33 -14 45 -17 117 -22 124 -25 156 -64 23 -29 39 -40 59 -40 15 0 45 -9
67 -20 l40 -21 -24 21 c-13 11 -34 22 -47 25 -13 3 -34 7 -47 10 -24 4 -89 83
-106 127 -8 23 -5 30 31 64 26 25 36 31 29 17 -19 -37 -14 -81 12 -94 20 -11
21 -11 8 5 -14 16 -12 16 23 -1 l38 -18 19 27 c11 15 35 32 54 38 26 8 37 20
45 46 11 33 13 34 26 17 7 -10 14 -21 14 -25z m-470 -1 c0 -19 -27 -53 -36
-45 -9 10 12 58 26 58 5 0 10 -6 10 -13z m510 -37 c8 -5 11 -10 5 -10 -5 0
-17 5 -25 10 -8 5 -10 10 -5 10 6 0 17 -5 25 -10z m169 -75 c-27 -45 -35 -50
-42 -23 -4 12 -5 23 -4 24 3 2 62 33 64 34 1 0 -7 -16 -18 -35z m-652 -41 c-3
-3 -12 -4 -19 -1 -8 3 -5 6 6 6 11 1 17 -2 13 -5z m133 -119 c0 -8 -4 -15 -10
-15 -5 0 -7 7 -4 15 4 8 8 15 10 15 2 0 4 -7 4 -15z m295 -55 c4 -11 11 -18
16 -15 5 4 9 4 9 1 0 -17 -20 -12 -34 9 -9 14 -12 25 -7 25 5 0 13 -9 16 -20z
m-129 -45 l33 -25 -19 -54 c-10 -29 -25 -66 -33 -82 -15 -28 -16 -24 -19 79
-2 59 -1 107 1 107 2 0 19 -11 37 -25z m59 -103 c-10 -10 -16 -12 -13 -7 3 6
8 19 13 30 5 14 9 16 12 7 3 -8 -3 -21 -12 -30z m1975 -321 c-5 -11 -15 -23
-22 -27 -7 -5 -8 -2 -3 7 21 37 44 55 25 20z m-180 -55 c0 -2 -7 -6 -15 -10
-8 -3 -15 -1 -15 4 0 6 7 10 15 10 8 0 15 -2 15 -4z"/>
<path d="M5220 4085 c-9 -10 -9 -15 -1 -16 6 -1 16 -2 21 -3 6 0 14 -5 18 -11
11 -16 32 -17 32 -2 0 16 -31 47 -47 47 -6 0 -16 -7 -23 -15z"/>
<path d="M1530 4061 c0 -6 5 -13 10 -16 6 -3 10 1 10 9 0 9 -4 16 -10 16 -5 0
-10 -4 -10 -9z"/>
<path d="M1497 4017 c-9 -13 -22 -31 -29 -38 -7 -8 -19 -25 -26 -37 -12 -21
-11 -22 8 -10 11 7 20 16 20 19 0 3 11 23 25 44 15 20 24 39 22 41 -2 3 -11
-6 -20 -19z"/>
<path d="M1531 4004 c0 -11 3 -14 6 -6 3 7 2 16 -1 19 -3 4 -6 -2 -5 -13z"/>
<path d="M810 4001 c0 -17 70 -154 76 -148 3 3 -9 30 -26 61 -29 50 -30 71 -4
47 5 -5 45 -28 89 -51 88 -47 95 -53 88 -84 -18 -77 -25 -96 -35 -90 -6 4 -8
-1 -3 -15 4 -13 0 -36 -9 -55 -13 -29 -20 -32 -61 -35 -25 -1 -45 3 -45 8 0 6
-7 8 -15 5 -8 -4 -22 -1 -30 6 -10 9 -15 9 -15 1 0 -6 -7 -11 -15 -11 -15 0
-32 61 -21 79 4 5 1 13 -5 16 -10 7 -11 108 -1 128 2 4 17 -9 33 -29 18 -23
26 -41 20 -48 -23 -29 -24 -116 -1 -116 6 0 5 10 -1 23 -8 18 -7 33 5 62 17
39 16 39 -16 89 -19 28 -38 60 -44 70 -21 40 -33 29 -29 -23 15 -158 15 -149
-6 -154 -10 -3 -19 -11 -19 -18 0 -10 3 -10 12 -1 20 20 28 14 28 -22 0 -50
12 -126 20 -126 3 0 5 15 4 33 -3 29 -3 30 5 7 9 -25 9 -25 10 -2 l1 23 53
-29 c28 -16 77 -37 107 -47 30 -10 61 -22 68 -28 17 -14 14 -55 -8 -102 -18
-39 -18 -55 1 -55 6 0 7 6 3 13 -5 8 -2 8 9 -2 18 -15 23 -26 7 -16 -5 3 -10
1 -10 -5 0 -7 8 -9 19 -5 26 8 59 -35 36 -48 -8 -4 -15 -19 -15 -33 0 -14 4
-22 10 -19 6 3 10 0 10 -8 0 -17 -35 -50 -77 -71 -36 -18 -44 -20 -40 -8 1 4
-14 31 -33 58 -28 41 -40 51 -62 50 -28 -1 -37 -14 -63 -91 -23 -65 -20 -115
8 -175 14 -30 32 -73 41 -95 13 -29 19 -36 26 -26 5 9 3 20 -6 29 -8 8 -20 34
-26 57 -7 24 -14 42 -17 40 -3 -1 -7 15 -8 37 -2 23 -7 46 -13 53 -20 24 28
155 55 155 28 0 92 -80 80 -100 -4 -6 -16 -10 -28 -10 -22 1 -22 1 -2 16 14
11 16 18 7 21 -6 3 -10 9 -6 14 3 5 -2 9 -10 9 -9 0 -16 6 -17 13 -2 26 -27
-70 -28 -108 0 -22 9 -83 20 -135 22 -97 33 -159 23 -127 -8 25 -25 21 -19 -5
3 -13 7 -47 9 -76 2 -29 11 -60 19 -70 24 -26 55 -122 56 -171 1 -53 -16 -121
-30 -121 -6 0 -9 6 -6 14 3 7 0 19 -6 26 -9 10 -8 12 6 7 25 -9 21 8 -8 27
-43 28 -48 22 -43 -49 5 -58 4 -65 -14 -71 -15 -4 -19 -13 -17 -38 2 -17 0
-37 -5 -44 -4 -6 -4 -17 -1 -22 11 -18 -36 -140 -67 -175 -28 -33 -29 -35 -13
-65 9 -18 19 -29 22 -26 3 3 -2 17 -11 31 -16 25 -16 26 12 55 43 42 85 152
86 223 1 45 4 57 16 54 10 -2 14 -13 12 -35 -2 -33 16 -78 48 -120 26 -32 14
-67 -51 -152 -24 -32 -26 -40 -19 -80 5 -25 9 -79 10 -121 0 -62 4 -79 21 -98
11 -12 41 -65 66 -118 56 -118 57 -117 74 107 0 8 7 2 14 -15 10 -20 12 -51 9
-95 -8 -94 11 -56 30 62 9 52 25 120 37 152 20 52 24 56 55 56 29 0 34 -4 45
-37 6 -21 27 -70 45 -110 21 -44 34 -86 34 -111 0 -45 14 -62 28 -36 15 27 82
-106 92 -184 5 -35 16 -72 25 -82 14 -16 16 -30 10 -75 -6 -50 -4 -60 22 -101
15 -25 45 -63 66 -85 21 -21 36 -43 33 -48 -4 -5 -2 -12 4 -16 5 -3 10 -21 10
-39 0 -19 10 -46 25 -66 14 -19 34 -58 45 -87 21 -58 26 -94 7 -53 -14 28 -37
38 -37 15 0 -9 9 -42 19 -73 25 -72 27 -185 7 -263 -4 -17 -1 -15 11 8 l16 32
24 -31 c23 -32 31 -64 14 -53 -6 3 -15 -5 -22 -17 -10 -20 -10 -21 2 -12 8 6
24 10 37 9 12 -1 22 2 22 7 0 4 -4 8 -10 8 -5 0 -10 6 -10 13 0 7 -15 37 -34
66 -19 31 -31 62 -29 72 7 25 16 24 51 -6 46 -39 44 -30 -4 19 -24 24 -44 50
-44 57 1 8 19 -6 41 -30 31 -35 42 -42 52 -32 9 10 9 11 -3 7 -10 -3 -27 12
-47 40 -32 44 -47 88 -17 49 15 -19 16 -17 12 27 -4 59 14 70 33 21 l14 -36 7
39 c4 21 7 77 8 124 1 47 5 105 9 130 8 40 9 36 10 -40 2 -86 6 -129 16 -187
3 -18 0 -43 -6 -55 -11 -21 -11 -22 4 -9 10 7 18 10 18 5 1 -5 5 9 9 31 5 22
5 59 0 82 -5 31 -4 40 5 36 8 -2 15 -31 17 -71 4 -58 2 -72 -19 -102 -12 -19
-23 -39 -23 -45 0 -5 5 -2 11 8 16 27 29 11 29 -34 0 -30 -6 -46 -23 -61 -19
-17 -18 -17 11 2 20 14 32 17 32 9 0 -7 2 -10 5 -7 9 9 -15 102 -28 110 -8 5
-6 12 6 26 13 14 17 36 17 88 0 60 -4 72 -25 92 -19 18 -23 31 -20 60 2 20 6
87 10 148 8 109 7 112 -19 150 -20 29 -26 51 -26 91 0 28 -5 55 -10 58 -6 4
-7 11 -4 17 4 6 2 8 -3 5 -6 -4 -16 0 -23 8 -10 12 -9 15 6 15 16 0 16 2 4 10
-9 6 -17 5 -21 -2 -4 -6 -11 -8 -15 -5 -5 3 -9 -13 -9 -34 0 -31 2 -36 11 -24
29 40 56 3 52 -72 l-3 -58 -24 40 c-14 22 -36 50 -49 63 -18 17 -22 29 -18 47
4 14 2 25 -4 25 -5 0 -10 11 -10 24 0 14 -5 28 -10 31 -6 4 -7 11 -4 17 4 6 3
8 -3 5 -5 -4 -16 6 -24 21 -8 15 -20 31 -26 35 -7 4 -13 12 -13 18 0 14 77
-40 85 -59 4 -9 8 -30 11 -46 6 -45 14 -44 14 2 0 46 -11 61 -82 110 -32 22
-48 41 -56 69 -35 116 -42 327 -15 429 11 41 14 68 8 72 -14 10 -51 90 -64
137 -6 22 -11 65 -11 96 0 43 -5 60 -19 73 -20 18 -20 18 1 61 22 44 19 71 -7
81 -21 9 -141 -109 -171 -168 -13 -27 -29 -48 -34 -48 -6 0 -10 -7 -10 -15 0
-8 -6 -15 -12 -15 -9 0 -8 -3 1 -9 12 -8 7 -17 -25 -47 -21 -20 -30 -32 -19
-26 21 11 27 12 51 12 9 0 12 5 8 12 -4 7 -3 8 4 4 9 -5 9 -13 2 -26 -8 -15
-7 -18 3 -14 10 3 20 -8 30 -33 8 -21 13 -40 10 -43 -3 -3 -8 0 -10 6 -2 6
-10 20 -18 30 -14 17 -14 16 -4 -11 5 -16 14 -35 20 -41 6 -8 -2 -19 -26 -35
-43 -29 -113 -119 -107 -137 2 -8 13 1 28 25 27 43 29 40 13 -23 -12 -47 -14
-48 -72 -35 -38 9 -70 38 -60 54 2 4 -1 6 -8 5 -7 -2 -25 20 -41 47 -25 44
-27 57 -23 110 l6 60 -22 -32 c-27 -43 -30 -41 -14 5 7 20 16 46 20 57 3 11 9
15 13 10 4 -6 16 -15 27 -21 13 -7 21 -24 23 -49 2 -26 15 -53 40 -83 32 -39
38 -42 47 -27 5 9 23 33 38 53 15 20 27 46 25 58 -1 11 4 30 12 40 14 19 14
19 -7 1 -12 -11 -20 -27 -18 -38 2 -11 -10 -40 -27 -64 l-32 -45 -28 27 c-35
33 -40 66 -5 37 l22 -19 -21 25 c-12 14 -26 39 -31 55 -5 17 -19 35 -30 40
-11 6 -18 16 -15 23 2 6 -3 14 -11 17 -9 4 -12 15 -9 30 2 14 8 22 13 19 5 -3
6 2 3 11 -5 11 -2 14 10 9 9 -3 16 -9 16 -14 0 -14 35 -47 47 -43 6 2 18 -6
26 -18 l15 -21 16 31 c9 17 25 35 36 41 11 6 20 18 20 27 0 13 -3 13 -15 3
-13 -10 -19 -10 -35 5 -21 19 -28 41 -8 29 7 -4 8 -3 4 4 -4 7 -14 12 -21 12
-17 0 10 51 48 92 12 13 24 35 25 49 4 23 38 69 52 69 4 0 12 -10 18 -22 11
-22 11 -22 6 3 -5 22 2 33 38 63 24 21 55 40 69 43 19 3 36 22 63 69 21 35 40
64 42 64 8 0 -3 -57 -18 -90 -8 -19 -34 -58 -56 -87 -23 -29 -39 -58 -36 -66
3 -9 -7 -24 -25 -38 -16 -13 -42 -42 -56 -64 -21 -32 -14 -27 35 25 34 36 70
81 80 101 24 46 86 120 94 112 3 -4 6 -17 6 -30 0 -14 21 -46 55 -83 59 -64
57 -55 34 -165 -6 -33 -5 -43 11 -60 25 -27 90 -151 83 -159 -3 -3 0 -12 7
-21 8 -9 10 -29 7 -53 -6 -36 -6 -36 8 -12 l14 25 1 -32 c0 -36 -17 -53 -32
-32 -7 10 -8 5 -3 -15 3 -16 2 -32 -2 -35 -5 -3 -17 -19 -26 -36 -18 -30 -18
-30 13 4 26 27 34 31 41 20 7 -9 8 -5 3 13 -11 50 8 53 28 4 10 -26 25 -54 32
-62 12 -12 17 -10 36 14 12 15 19 22 16 16 -3 -6 8 -24 24 -39 30 -29 43 -30
14 -1 -8 9 -10 16 -4 16 7 0 7 7 -2 23 -21 38 -12 194 18 314 26 104 26 107 8
120 -45 33 -94 86 -94 102 0 10 11 40 25 66 22 45 23 51 9 66 -24 27 -43 89
-44 144 l-1 50 -27 -31 c-15 -17 -37 -44 -48 -60 l-22 -29 12 46 c6 25 17 53
25 62 8 10 15 55 18 115 6 96 5 100 -18 115 -32 23 -47 22 -19 -1 20 -17 23
-26 20 -88 -1 -38 -2 -79 -2 -91 0 -13 -4 -23 -9 -23 -5 0 -8 -3 -7 -7 3 -10
-34 -73 -43 -73 -4 0 -19 19 -32 43 -26 44 -100 102 -117 92 -5 -3 -14 3 -19
14 -19 35 -12 85 18 133 33 52 82 91 89 70 2 -7 16 -19 32 -27 l28 -14 -5 67
c-4 65 -15 93 -30 79 -4 -4 -2 -12 4 -18 15 -15 5 -39 -16 -39 -15 0 -45 -28
-109 -101 -13 -15 -32 -60 -43 -100 -22 -85 -22 -96 -4 -55 12 28 13 28 19 8
4 -12 21 -26 41 -32 19 -6 48 -27 64 -46 35 -40 65 -93 57 -102 -3 -3 -6 -1
-6 5 0 21 -60 99 -89 116 -33 19 -74 15 -69 -7 4 -16 -33 -96 -44 -96 -5 0 -6
-5 -3 -10 3 -6 -2 -13 -12 -17 -10 -4 -21 -11 -25 -17 -4 -6 -10 -8 -13 -4 -4
4 9 34 29 68 20 33 36 66 36 73 -1 7 -12 -9 -25 -35 -14 -26 -33 -52 -42 -57
-10 -6 -15 -11 -10 -11 4 0 1 -16 -7 -35 -17 -40 -12 -43 24 -15 14 11 29 20
33 20 14 0 -14 -41 -31 -47 -9 -3 -37 -20 -62 -38 -25 -17 -53 -34 -63 -38
-10 -4 -16 -10 -13 -15 2 -4 -3 -8 -12 -9 -10 -1 -25 12 -34 28 l-17 28 56 56
c36 36 59 52 63 44 5 -7 12 -5 21 8 8 11 24 25 37 32 29 15 86 141 65 141 -5
0 -17 -25 -27 -55 -9 -30 -21 -55 -25 -55 -11 0 -8 28 7 63 7 16 12 32 12 37
0 5 8 13 17 18 13 8 18 30 22 96 l6 85 55 56 c35 36 68 59 92 66 39 10 60 29
33 29 -26 0 -74 -29 -121 -72 -24 -22 -44 -35 -44 -29 0 6 -7 11 -15 11 -8 0
-20 9 -27 20 -7 11 -16 20 -21 20 -4 0 -6 -4 -2 -9 3 -5 2 -12 -3 -15 -7 -4
-13 17 -14 54 -1 8 2 23 7 33 13 31 -11 18 -28 -15 -13 -24 -16 -26 -13 -10 2
12 0 22 -5 22 -5 0 -9 7 -9 15 0 8 6 13 13 11 6 -1 9 -1 5 1 -11 6 -10 45 2
63 8 13 11 12 24 -5 9 -11 16 -29 16 -40 1 -18 2 -18 10 -3 7 11 5 25 -7 47
-16 28 -16 33 -3 41 12 8 17 3 24 -25 5 -19 13 -35 18 -35 4 0 8 -4 8 -10 0
-5 -7 -10 -16 -10 -8 0 -12 -5 -8 -11 4 -8 11 -6 21 4 13 13 13 18 -1 45 -18
35 -21 72 -6 72 6 0 10 15 10 33 0 28 8 39 50 71 58 45 170 155 170 168 0 5
-9 4 -21 -2 -26 -14 -36 -6 -19 15 10 12 10 15 -3 15 -15 0 -18 13 -30 140 -2
19 -4 8 -5 -25 -1 -33 4 -83 12 -112 l14 -51 -48 -26 c-26 -14 -52 -26 -58
-26 -5 0 -22 16 -36 35 -26 33 -26 36 -10 60 16 24 15 26 -20 65 -20 23 -34
45 -31 50 4 6 1 10 -4 10 -20 0 -11 -26 18 -54 25 -24 29 -38 22 -78 -3 -22
-21 -4 -21 21 0 22 -18 46 -79 109 -74 76 -81 81 -118 79 -34 -1 -38 -3 -27
-15 26 -25 32 -47 25 -82 -10 -52 -26 -46 -26 10 0 53 -19 86 -35 61 -7 -12
-11 -13 -24 -1 -9 7 -17 11 -19 9 -1 -2 -12 -24 -25 -49 -24 -49 -77 -117 -68
-87 11 34 -6 78 -33 88 -50 19 -166 82 -188 102 -13 12 -23 15 -23 8z m467
-77 c5 -13 7 -13 14 -2 6 9 9 5 9 -14 0 -15 9 -53 21 -84 15 -41 18 -59 10
-67 -8 -8 -11 -4 -11 17 0 38 -34 32 -38 -7 -2 -15 -7 -27 -12 -27 -12 0 -24
46 -16 59 4 6 9 33 12 61 5 42 2 54 -13 65 -17 14 -17 14 0 15 10 0 20 -7 24
-16z m-85 -52 c6 -41 0 -52 -27 -52 -16 0 -39 -17 -71 -55 -52 -60 -72 -68
-29 -11 15 19 28 41 29 48 1 7 15 36 30 65 24 43 32 51 46 43 10 -5 20 -22 22
-38z m248 -92 c0 -6 -4 -8 -10 -5 -5 3 -10 1 -10 -5 0 -17 -57 30 -70 59 -32
68 -22 73 35 18 30 -30 55 -60 55 -67z m-196 16 c-3 -13 -1 -33 4 -43 13 -24
6 -36 -34 -56 -30 -15 -60 -68 -47 -81 17 -17 -28 -3 -48 15 -17 15 -19 19 -6
15 11 -4 17 0 17 11 0 22 67 130 93 148 28 20 28 19 21 -9z m-50 2 c-41 -67
-95 -138 -90 -118 3 14 6 36 6 50 0 31 44 80 71 80 14 0 18 -4 13 -12z m211
-41 c21 -10 31 -23 33 -41 1 -14 1 -26 -1 -26 -1 0 -17 4 -35 9 -29 9 -44 0
-23 -14 5 -3 12 -19 16 -35 5 -25 0 -38 -32 -77 -21 -27 -30 -42 -20 -34 30
23 21 -28 -13 -73 -17 -22 -30 -33 -30 -25 0 9 -14 28 -30 44 -17 16 -43 55
-59 86 -26 52 -27 59 -15 88 16 39 30 39 52 1 9 -16 20 -30 25 -30 4 0 2 8 -4
18 -9 14 -9 23 0 38 9 14 11 15 7 2 -6 -19 18 -43 34 -33 5 3 10 13 10 21 0 8
5 14 11 14 19 0 4 -44 -19 -56 -13 -7 -20 -14 -15 -17 15 -10 51 30 53 59 3
43 1 51 -10 34 -8 -11 -9 -7 -3 15 4 17 7 40 8 52 0 18 2 20 15 8 8 -7 29 -19
45 -28z m-93 -29 c0 -49 -1 -58 -11 -58 -12 0 -19 66 -8 86 12 21 18 12 19
-28z m-223 -40 c-17 -38 10 -84 55 -92 25 -5 37 -14 46 -37 7 -16 10 -32 6
-36 -3 -3 -6 -1 -6 6 0 7 -3 10 -8 7 -11 -7 -83 40 -74 49 4 4 1 5 -6 1 -12
-7 -72 38 -72 54 0 9 62 81 67 77 2 -3 -1 -16 -8 -29z m-64 -18 c-9 -41 -17
-33 -9 9 4 17 9 30 11 27 3 -2 2 -19 -2 -36z m450 30 c3 -5 1 -10 -4 -10 -6 0
-11 5 -11 10 0 6 2 10 4 10 3 0 8 -4 11 -10z m129 -38 c-22 -21 -57 -51 -79
-68 -22 -16 -43 -33 -47 -39 -4 -5 -10 -6 -14 -3 -12 13 47 71 110 109 33 20
63 38 65 38 2 1 -14 -16 -35 -37z m-125 4 c16 -19 -23 -89 -119 -208 -13 -17
-25 -38 -26 -46 -2 -9 -12 -28 -23 -43 -12 -16 -21 -33 -21 -39 0 -21 -18 -9
-24 16 -4 15 -32 52 -62 84 -32 34 -54 66 -54 79 0 22 0 22 30 4 17 -9 30 -22
30 -28 0 -5 4 -4 9 4 12 19 57 -12 65 -45 6 -21 36 -36 36 -16 0 4 14 22 30
40 17 18 30 42 30 53 0 29 17 58 57 100 22 23 31 39 24 43 -6 4 -11 0 -11 -8
0 -9 -5 -16 -10 -16 -7 0 -7 6 0 20 13 24 23 25 39 6z m-441 -67 c7 -11 29
-27 48 -35 18 -8 34 -19 34 -24 0 -7 -7 -7 -20 0 -11 6 -25 8 -30 5 -5 -3 -37
6 -71 20 -34 14 -70 25 -80 25 -10 0 -21 5 -25 11 -5 9 11 11 59 7 38 -3 64
-2 61 3 -3 5 -1 9 3 9 5 0 14 -9 21 -21z m48 -129 c12 -41 12 -46 -8 -67 -20
-21 -23 -22 -37 -8 -13 13 -13 19 -3 35 6 11 12 36 12 56 0 48 20 40 36 -16z
m42 17 c16 -21 6 -43 -13 -27 -17 14 -26 50 -11 47 6 -1 17 -10 24 -20z m297
3 c-3 -5 -12 -10 -18 -10 -7 0 -6 4 3 10 19 12 23 12 15 0z m-208 -104 l15
-28 -36 28 c-20 16 -36 38 -36 48 0 19 0 19 21 0 12 -10 28 -32 36 -48z m151
34 c-7 -10 -14 -17 -17 -15 -4 4 18 35 25 35 2 0 -1 -9 -8 -20z m-218 -30 c6
-11 12 -38 14 -60 5 -55 16 -63 16 -12 0 23 3 42 7 42 11 0 73 -44 73 -52 0
-17 43 -7 61 15 l18 22 1 -22 c0 -13 0 -26 0 -30 0 -5 -14 -13 -31 -18 -16 -6
-27 -14 -23 -18 4 -4 2 -7 -5 -7 -15 0 -27 -32 -35 -95 -5 -37 -15 -59 -39
-83 l-31 -33 -18 23 c-21 27 -22 16 -5 -34 10 -29 16 -35 25 -26 7 7 12 17 12
22 0 6 14 24 30 41 23 24 32 44 37 84 6 56 37 105 72 114 23 6 18 -18 -4 -27
-19 -7 -43 -67 -51 -124 -5 -40 -14 -54 -58 -94 -28 -26 -53 -47 -56 -48 -4 0
-12 16 -19 36 -20 55 -22 35 -3 -24 l18 -53 29 39 c16 21 46 51 67 66 34 25
38 32 38 73 0 25 7 61 17 80 l16 35 13 -37 c13 -40 38 -71 69 -88 11 -6 3 5
-17 24 -37 36 -55 77 -44 104 9 24 36 17 47 -12 12 -32 26 -43 54 -43 20 1 20
1 1 15 -23 18 -17 19 20 5 l27 -11 -22 -22 c-11 -13 -21 -33 -21 -45 0 -12 -6
-22 -12 -22 -8 0 -9 -3 -3 -8 6 -4 11 -27 13 -51 2 -33 -3 -53 -22 -80 -13
-20 -27 -45 -30 -57 -6 -18 -86 -84 -103 -84 -4 0 -23 15 -43 33 l-35 32 35
-40 c19 -22 36 -41 37 -43 0 -2 24 13 52 34 29 20 54 35 56 32 6 -6 -44 -58
-55 -58 -5 0 -25 -14 -45 -31 -32 -28 -42 -27 -36 5 1 5 -14 25 -33 45 -19 20
-40 50 -46 66 l-12 30 -34 -40 c-18 -22 -44 -59 -56 -82 -19 -36 -20 -44 -9
-55 12 -11 13 -10 8 5 -7 18 44 109 75 134 13 11 17 7 28 -27 7 -22 16 -37 20
-35 4 3 15 -4 24 -14 17 -18 17 -21 1 -45 -21 -32 -29 -33 -20 -5 5 16 4 19
-5 14 -9 -5 -11 -4 -6 3 7 12 -17 66 -34 77 -25 16 -87 -111 -74 -151 5 -18 5
-18 -9 -1 -8 9 -18 17 -23 17 -12 0 -114 100 -114 111 0 14 7 11 47 -23 l38
-33 -35 41 c-19 22 -38 39 -42 37 -5 -2 -8 5 -8 15 0 11 -6 32 -14 47 -19 36
-38 150 -33 194 4 34 6 35 51 37 26 2 62 13 82 24 19 12 34 19 34 16 0 -4 11
1 25 10 14 9 22 21 18 27 -3 6 -1 7 5 3 7 -4 12 -14 12 -22 0 -8 -4 -12 -10
-9 -5 3 -10 1 -10 -4 0 -6 4 -11 9 -11 5 0 4 -20 -1 -45 -6 -30 -6 -50 2 -62
10 -17 10 -17 8 2 -1 11 2 48 6 83 6 44 4 67 -4 77 -6 8 -10 22 -8 32 7 32 31
-26 38 -92 l7 -60 2 68 c1 60 -2 71 -23 92 -17 17 -31 23 -43 18 -16 -6 -16
-5 -4 10 7 9 22 17 32 17 10 0 21 5 24 10 4 7 -2 9 -18 4 -23 -5 -25 -3 -20
18 3 16 2 19 -5 10 -7 -11 -11 -11 -20 0 -16 20 1 42 27 33 22 -7 30 10 9 18
-8 3 -6 6 4 6 10 1 22 -8 28 -19z m447 -513 c12 -11 32 -42 45 -68 13 -27 31
-51 41 -55 26 -8 21 -53 -13 -103 -17 -24 -30 -51 -30 -59 0 -18 -43 36 -70
88 -9 19 -21 71 -24 115 -4 44 -10 88 -13 98 -4 16 -1 18 19 12 12 -4 33 -16
45 -28z m-664 -75 c2 -12 13 -32 25 -44 11 -13 24 -43 28 -68 l6 -45 -35 51
c-28 40 -36 61 -35 93 0 44 5 50 11 13z m880 -28 c3 -30 15 -71 26 -90 20 -34
20 -34 1 -67 l-20 -32 0 32 c0 43 -14 49 -44 16 -14 -15 -29 -24 -33 -20 -4 4
-8 33 -10 65 -3 50 0 63 27 105 16 26 34 47 39 47 4 0 11 -25 14 -56z m-644
-30 c10 -29 11 -45 1 -80 -15 -52 -34 -57 -49 -13 -14 39 -14 70 -1 103 13 36
34 32 49 -10z m-120 -71 c7 -14 8 -24 1 -28 -6 -4 -2 -21 10 -46 25 -47 18
-50 -18 -7 -25 28 -49 95 -51 141 -1 15 4 13 23 -10 12 -15 28 -38 35 -50z
m180 41 c-13 -14 -25 -20 -27 -14 -2 6 4 18 14 25 31 24 39 17 13 -11z m511
-132 c0 -8 -13 -1 -30 15 -29 27 -39 53 -21 53 5 0 12 10 15 23 6 18 9 14 21
-28 8 -27 14 -56 15 -63z m-628 53 c6 -14 20 -25 30 -25 10 0 24 11 30 25 12
26 17 29 41 19 12 -4 9 -17 -16 -75 -21 -46 -34 -66 -41 -59 -16 16 -36 12
-36 -7 0 -27 -15 -4 -38 61 -17 45 -20 62 -11 72 17 20 28 17 41 -11z m686
-34 c-15 -5 -21 7 -13 26 7 17 8 17 15 -2 4 -11 3 -22 -2 -24z m-569 -17 c-9
-22 -13 -25 -16 -12 -5 19 18 69 24 52 2 -6 -2 -24 -8 -40z m501 -45 c0 -18
17 -9 30 16 7 14 16 25 20 25 4 0 16 -19 28 -42 12 -24 40 -56 62 -73 21 -16
39 -37 39 -45 1 -8 -8 -49 -19 -90 -11 -41 -23 -115 -27 -165 -3 -49 -11 -97
-18 -105 -6 -8 -15 -22 -19 -30 -4 -8 1 -4 12 9 14 17 21 20 27 11 4 -7 -2
-22 -17 -37 l-25 -25 -22 48 c-13 26 -25 63 -28 81 -3 18 -10 36 -14 39 -5 3
-9 12 -9 21 0 25 -31 125 -38 119 -6 -7 -42 50 -47 76 -2 10 -7 23 -10 29 -4
6 -4 35 0 66 l7 55 21 -20 c12 -11 34 -27 48 -36 23 -14 26 -15 26 0 0 8 -17
24 -38 35 -45 23 -59 45 -59 94 l0 37 35 -42 c19 -23 35 -46 35 -51z m-687 11
c6 -14 11 -32 12 -41 1 -9 18 -33 37 -52 49 -49 53 -72 16 -98 -16 -12 -30
-20 -31 -18 -1 2 -12 18 -24 35 -17 24 -21 41 -16 68 4 26 0 45 -16 71 -11 20
-21 48 -21 62 0 22 2 24 16 12 9 -7 21 -25 27 -39z m463 -26 c-3 -9 -6 -21 -7
-27 -1 -7 -4 -1 -8 12 l-6 24 -30 -26 c-54 -45 -126 -159 -134 -213 -7 -48 -7
-48 -15 -17 -6 25 -1 44 23 91 37 73 130 172 161 172 16 0 20 -4 16 -16z
m-391 -46 l23 -27 23 25 c31 33 36 23 7 -20 l-24 -35 -37 46 c-20 25 -34 50
-30 56 4 7 8 6 11 -3 3 -8 15 -27 27 -42z m358 -15 c-6 -35 -20 -43 -30 -18
-3 9 3 25 12 35 22 25 24 23 18 -17z m-553 -4 c0 -6 -4 -7 -10 -4 -5 3 -10 11
-10 16 0 6 5 7 10 4 6 -3 10 -11 10 -16z m98 -43 c11 -60 8 -126 -7 -126 -3 0
-17 21 -30 46 -24 44 -24 47 -8 74 9 15 17 38 17 49 0 43 16 19 28 -43z m-21
-138 c12 -13 13 -22 6 -29 -13 -13 -31 17 -70 111 -36 86 -26 94 13 10 19 -41
42 -82 51 -92z m427 30 c-9 -18 -23 -40 -31 -50 -12 -13 -12 -24 -3 -57 6 -23
13 -41 16 -41 2 0 2 11 -2 24 -6 25 15 73 48 107 16 17 15 41 -6 106 -7 21 -6
22 24 11 20 -6 29 -15 26 -24 -10 -26 26 -190 53 -246 16 -31 25 -60 21 -65
-10 -12 -31 -253 -23 -265 3 -6 12 -50 19 -97 7 -47 16 -95 20 -106 7 -18 6
-18 -30 3 -20 12 -47 22 -58 22 -17 0 -15 -4 13 -23 19 -12 34 -28 34 -34 0
-7 6 -18 14 -25 10 -10 12 -10 7 0 -4 6 -3 12 3 12 6 0 26 -22 44 -50 19 -27
36 -48 39 -45 11 12 46 -43 52 -82 3 -24 4 -43 1 -43 -2 0 -32 25 -66 55 -34
30 -65 55 -70 55 -5 0 12 -19 36 -41 42 -39 45 -45 39 -78 -11 -62 -17 -64
-54 -26 -29 30 -34 42 -33 78 2 38 1 37 -11 -18 -15 -68 -39 -128 -48 -119 -4
3 -3 18 1 32 11 40 6 91 -9 105 -12 10 -12 9 -2 -5 9 -11 10 -18 2 -23 -13 -8
-17 4 -30 85 -13 88 -13 163 3 179 10 11 9 13 -3 9 -11 -3 -16 -22 -18 -64
l-4 -59 -27 59 c-25 55 -26 66 -19 139 8 86 46 172 80 183 11 3 15 10 11 17
-10 17 -11 46 -3 100 l7 48 -52 39 c-51 38 -77 81 -89 145 -1 11 -7 28 -11 38
-8 20 1 45 41 108 l26 42 19 -41 c18 -40 19 -44 3 -74z m-249 32 c17 -18 17
-21 1 -45 -20 -30 -27 -31 -51 -5 -15 17 -16 24 -7 45 14 30 33 32 57 5z
m-230 -61 c9 -17 15 -34 13 -39 -2 -5 -11 9 -20 30 -20 47 -15 53 7 9z m395
-60 c0 -6 -4 -7 -10 -4 -5 3 -10 11 -10 16 0 6 5 7 10 4 6 -3 10 -11 10 -16z
m-334 -116 c-4 -16 -9 -36 -12 -45 -4 -12 -1 -16 8 -13 13 4 105 -121 101
-137 -2 -4 2 -7 8 -5 6 1 14 -4 17 -12 2 -8 1 -11 -4 -8 -5 3 -10 -13 -11 -36
0 -22 -4 -61 -8 -86 -8 -49 -15 -42 -29 29 -6 27 -5 32 4 20 9 -11 10 -4 5 30
-6 37 -17 55 -61 99 -47 48 -71 83 -46 67 5 -3 6 8 4 24 -4 27 14 100 25 100
3 0 2 -12 -1 -27z m407 -19 c46 -36 47 -38 47 -94 0 -50 -5 -66 -35 -110 -19
-29 -45 -84 -57 -124 l-23 -71 -7 84 c-4 46 -14 104 -22 129 -18 50 -12 66 41
123 17 18 21 29 13 34 -6 4 -12 5 -14 4 -1 -2 -19 -28 -39 -57 -20 -28 -37
-58 -37 -65 0 -6 -4 -19 -9 -26 -8 -12 -12 -10 -22 11 -10 23 -9 32 10 63 24
41 28 70 6 41 -8 -11 -15 -15 -15 -9 0 13 25 35 32 28 2 -3 19 13 37 35 17 22
35 40 40 40 4 0 29 -16 54 -36z m-450 -42 l-5 -58 52 -50 52 -50 -12 -75 c-7
-40 -14 -85 -16 -99 -3 -14 -5 -51 -5 -84 l-1 -58 -23 53 c-13 30 -26 66 -29
81 -3 15 -12 33 -19 40 -19 19 -38 78 -26 78 6 0 7 5 3 12 -4 6 -6 37 -5 67 1
33 -4 67 -13 83 -13 25 -12 30 15 72 16 25 30 46 33 46 2 0 2 -26 -1 -58z
m330 -194 c3 -18 8 -44 11 -58 4 -14 -2 -8 -14 15 -20 41 -27 91 -11 81 5 -3
11 -20 14 -38z m25 -28 c0 -9 -3 -7 -8 5 -5 11 -8 29 -8 40 0 16 2 15 8 -5 4
-14 8 -32 8 -40z m57 -170 c3 -5 1 -10 -4 -10 -6 0 -11 5 -11 10 0 6 2 10 4
10 3 0 8 -4 11 -10z m359 -359 c-2 -2 -14 5 -27 17 -35 33 -45 26 -12 -8 l28
-29 -18 -66 c-9 -36 -21 -67 -25 -70 -9 -6 -106 79 -119 104 -5 9 -5 27 0 40
l10 24 38 -37 39 -38 6 49 c3 26 6 56 6 66 1 14 8 11 40 -15 21 -18 37 -35 34
-37z m-187 -3 c-3 -8 -6 -5 -6 6 -1 11 2 17 5 13 3 -3 4 -12 1 -19z m264 -96
c10 -18 10 -47 1 -140 -7 -64 -13 -146 -14 -182 -1 -76 -16 -130 -17 -64 -1
23 -13 87 -27 143 -14 55 -23 105 -19 111 3 5 8 42 11 82 3 40 7 79 10 86 2 7
-1 10 -6 7 -12 -7 -12 -3 -4 20 6 14 10 13 30 -12 12 -15 28 -38 35 -51z
m-257 17 c-2 -4 3 -12 11 -19 8 -7 13 -16 10 -20 -3 -5 31 -46 75 -91 44 -46
80 -89 80 -97 0 -7 -4 -10 -10 -7 -6 3 -7 -1 -4 -9 3 -9 11 -13 17 -9 6 3 7 1
3 -5 -4 -6 0 -28 9 -48 26 -64 15 -62 -14 3 -16 34 -47 81 -69 105 -22 23 -43
54 -47 67 -5 16 -10 20 -15 11 -5 -9 -11 -6 -22 9 -8 11 -18 19 -21 16 -4 -3
-5 -2 -3 1 3 3 -4 23 -16 45 -14 28 -18 47 -13 71 l7 32 13 -25 c7 -13 11 -27
9 -30z m-50 -5 c3 -8 2 -12 -4 -9 -6 3 -10 10 -10 16 0 14 7 11 14 -7z m357
-36 c13 -24 6 -159 -10 -213 -9 -27 -10 -25 -12 25 -6 102 -4 210 3 210 4 0
13 -10 19 -22z m-158 -46 c-6 -25 -22 -28 -43 -9 -8 6 -6 2 4 -10 10 -13 23
-20 27 -17 5 3 9 1 9 -5 0 -5 3 -18 6 -28 4 -10 -14 2 -40 27 -59 57 -60 70
-2 45 14 -6 23 -4 30 8 13 21 17 17 9 -11z m23 -60 c-13 -12 -17 8 -9 44 l8
39 3 -39 c2 -21 1 -41 -2 -44z m-20 -167 c12 -27 25 -68 29 -90 6 -33 0 -26
-38 47 -24 48 -47 104 -50 124 l-6 38 21 -34 c12 -19 31 -57 44 -85z m91 -157
c-3 -8 -6 -5 -6 6 -1 11 2 17 5 13 3 -3 4 -12 1 -19z m-70 -40 c-3 -8 -6 -5
-6 6 -1 11 2 17 5 13 3 -3 4 -12 1 -19z m-20 -20 c-3 -7 -5 -2 -5 12 0 14 2
19 5 13 2 -7 2 -19 0 -25z"/>
<path d="M1019 3103 c-13 -16 -12 -17 4 -4 9 7 17 15 17 17 0 8 -8 3 -21 -13z"/>
<path d="M920 3020 c0 -11 4 -20 9 -20 5 0 7 9 4 20 -3 11 -7 20 -9 20 -2 0
-4 -9 -4 -20z"/>
<path d="M952 2905 c0 -16 2 -22 5 -12 2 9 2 23 0 30 -3 6 -5 -1 -5 -18z"/>
<path d="M1200 2901 c0 -6 4 -13 10 -16 6 -3 7 1 4 9 -7 18 -14 21 -14 7z"/>
<path d="M1200 2803 c0 -6 8 -17 18 -24 16 -13 16 -13 2 6 -8 11 -16 22 -17
24 -2 2 -3 0 -3 -6z"/>
<path d="M1679 2355 c17 -34 31 -51 31 -39 0 7 -9 22 -21 35 -16 19 -18 20
-10 4z"/>
<path d="M1780 2298 c0 -9 5 -20 10 -23 13 -8 13 5 0 25 -8 13 -10 13 -10 -2z"/>
<path d="M1477 1593 c-4 -3 -6 -22 -6 -42 l1 -36 8 40 c8 42 8 49 -3 38z"/>
<path d="M1471 1424 c0 -11 3 -14 6 -6 3 7 2 16 -1 19 -3 4 -6 -2 -5 -13z"/>
<path d="M950 1949 c0 -5 5 -7 10 -4 6 3 10 8 10 11 0 2 -4 4 -10 4 -5 0 -10
-5 -10 -11z"/>
<path d="M990 1684 c0 -6 7 -19 16 -30 14 -18 14 -18 3 6 -14 31 -19 36 -19
24z"/>
<path d="M1522 3950 c0 -14 2 -19 5 -12 2 6 2 18 0 25 -3 6 -5 1 -5 -13z"/>
<path d="M1586 3928 l-18 -33 21 25 c18 22 26 40 18 40 -1 0 -11 -15 -21 -32z"/>
<path d="M1490 3903 c0 -10 4 -14 8 -8 4 6 11 13 16 18 5 4 2 7 -7 7 -10 0
-17 -8 -17 -17z"/>
<path d="M941 3846 c16 -34 -13 -118 -52 -151 -17 -14 -24 -25 -17 -25 32 0
78 72 88 138 6 36 4 45 -11 53 -17 9 -18 7 -8 -15z"/>
<path d="M1572 3790 c0 -19 2 -27 5 -17 2 9 2 25 0 35 -3 9 -5 1 -5 -18z"/>
<path d="M973 3763 c-6 -21 -10 -39 -8 -41 7 -8 26 40 23 59 -2 15 -6 10 -15
-18z"/>
<path d="M711 3684 c0 -11 3 -14 6 -6 3 7 2 16 -1 19 -3 4 -6 -2 -5 -13z"/>
<path d="M4688 3683 c-25 -6 -23 -23 2 -18 13 3 20 -2 21 -13 0 -14 2 -13 9 3
16 36 12 40 -32 28z"/>
<path d="M700 3647 c0 -10 -7 -20 -15 -23 -8 -4 -15 -11 -15 -17 0 -5 8 -3 18
6 10 10 28 14 42 12 14 -3 18 -2 10 2 -8 3 -20 13 -27 22 -11 14 -12 14 -13
-2z"/>
<path d="M4555 3503 c-145 -295 -225 -514 -226 -620 -2 -75 8 -140 22 -149 5
-3 9 -15 9 -27 0 -12 5 -29 10 -37 8 -13 12 -12 25 7 18 26 94 73 118 73 9 0
36 12 61 28 36 21 45 33 46 54 0 15 -4 29 -9 33 -14 8 -80 -24 -130 -64 -41
-33 -44 -33 -57 -16 -7 10 -16 38 -20 63 -20 132 146 587 255 701 23 24 41 46
41 51 0 11 -46 40 -63 40 -9 0 -43 -58 -82 -137z"/>
<path d="M800 3568 c0 -5 21 -8 47 -8 25 0 43 3 40 6 -9 10 -87 11 -87 2z"/>
<path d="M635 3538 c-14 -29 -14 -31 0 -14 13 17 15 18 15 3 0 -9 5 -17 10
-17 7 0 7 7 0 20 -6 11 -8 25 -5 30 3 6 4 10 1 10 -3 0 -13 -15 -21 -32z"/>
<path d="M717 3551 c-2 -10 -1 -24 3 -30 4 -7 7 1 8 18 1 35 -3 40 -11 12z"/>
<path d="M5386 3437 c3 -10 9 -15 12 -12 3 3 0 11 -7 18 -10 9 -11 8 -5 -6z"/>
<path d="M1470 3435 c0 -5 5 -17 10 -25 5 -8 10 -10 10 -5 0 6 -5 17 -10 25
-5 8 -10 11 -10 5z"/>
<path d="M5470 3394 c-42 -38 -70 -40 -70 -4 0 24 -17 26 -42 3 -10 -9 -38
-18 -61 -20 -56 -6 -91 -40 -116 -115 -15 -45 -34 -73 -75 -114 -31 -30 -57
-54 -59 -54 -3 0 -14 26 -25 58 -19 52 -20 61 -7 97 19 53 19 97 0 121 -16 19
-16 19 -13 -1 3 -13 -6 -26 -25 -38 -29 -18 -47 -15 -47 6 0 7 -12 28 -27 46
-51 60 -82 22 -84 -102 -1 -54 -3 -65 -9 -42 -4 17 -8 22 -9 12 0 -10 -10 -36
-22 -59 -12 -23 -24 -70 -27 -106 -8 -76 -25 -90 -42 -35 -19 58 -30 63 -30
11 0 -30 -9 -64 -26 -96 -23 -45 -26 -63 -29 -174 -1 -80 0 -104 5 -68 6 51 7
52 9 15 3 -42 12 -75 23 -78 4 -1 13 7 21 17 12 17 14 14 13 -27 -1 -25 -4
-43 -8 -41 -4 3 -23 -11 -43 -31 -19 -20 -35 -34 -35 -30 0 23 24 94 30 90 5
-3 11 -2 14 3 2 4 -3 8 -13 9 -14 1 -21 -11 -29 -49 -7 -27 -10 -54 -6 -59 3
-5 -2 -19 -10 -31 -15 -21 -16 -21 -17 -3 -2 36 -8 80 -14 102 -3 12 1 41 9
65 9 23 13 44 11 46 -4 5 -33 -13 -66 -40 -20 -17 -36 -95 -49 -243 -15 -172
-28 -253 -45 -286 -9 -16 -17 -49 -19 -73 -4 -41 -1 -49 30 -80 28 -28 34 -42
34 -75 0 -35 4 -43 30 -56 19 -10 40 -13 53 -9 34 11 87 57 87 77 0 10 11 22
24 27 13 5 26 20 30 35 5 21 2 31 -18 46 -14 11 -26 32 -28 46 -2 22 -10 29
-43 38 -69 18 -82 30 -80 72 5 71 91 228 163 297 28 26 30 33 25 76 -8 68 12
147 48 188 17 19 35 45 41 58 17 38 30 28 23 -16 -5 -29 -1 -55 14 -95 15 -39
21 -79 21 -135 l0 -80 -41 45 c-23 25 -45 45 -50 45 -25 0 -3 -49 102 -237 23
-41 24 -43 5 -60 -18 -17 -18 -17 -12 11 5 21 1 38 -19 67 -25 38 -42 52 -32
26 3 -7 -4 -19 -14 -25 -10 -7 -19 -19 -19 -28 0 -9 -6 -30 -14 -47 -27 -61
-29 -72 -27 -117 1 -25 -11 -107 -28 -183 -28 -125 -31 -167 -12 -167 4 0 15
13 24 30 l18 30 84 -165 c70 -140 105 -235 87 -235 -3 0 -33 14 -68 31 -36 18
-66 30 -69 27 -10 -9 32 -96 66 -138 30 -37 113 -158 140 -204 68 -115 109
-258 109 -377 0 -70 -3 -91 -15 -95 -8 -4 -15 -13 -15 -21 0 -8 -7 -28 -16
-45 -10 -19 -12 -34 -6 -40 13 -13 -33 -122 -79 -185 -39 -52 -65 -69 -148
-97 -45 -15 -58 -13 -134 19 -17 7 -18 6 -3 -30 9 -21 14 -40 11 -43 -8 -8 36
-63 46 -57 5 4 9 2 9 -3 0 -18 28 -21 74 -7 25 8 83 19 129 25 132 17 131 17
143 55 10 31 9 34 -5 23 -9 -7 -1 3 17 21 l33 34 26 -24 c15 -13 22 -16 14 -7
-13 17 -12 18 54 9 6 -1 3 -5 -5 -11 -8 -5 -12 -11 -9 -15 3 -3 22 6 42 19 30
21 35 22 25 6 -7 -10 -21 -23 -33 -29 -20 -9 -19 -10 3 -10 24 -1 62 49 62 81
0 9 4 19 8 22 11 7 2 -55 -10 -74 -6 -8 4 1 22 20 28 31 31 40 27 82 -3 41 -1
50 24 74 16 15 26 31 23 35 -2 4 1 11 7 15 8 4 9 3 5 -4 -10 -16 0 -15 29 4
21 14 105 114 105 126 0 2 -39 -15 -86 -39 -83 -42 -133 -50 -142 -23 -2 6
-14 4 -30 -4 -22 -11 -29 -11 -39 -1 -9 9 -7 20 8 45 18 29 19 34 5 49 -20 22
-20 30 0 52 15 17 19 17 48 3 l31 -16 -37 38 c-31 31 -39 35 -52 25 -25 -21
-35 -4 -31 55 3 51 2 54 -17 48 -14 -4 -18 -3 -13 5 4 7 16 11 28 9 13 -2 21
2 20 9 -1 6 4 17 12 23 8 7 15 17 15 21 0 10 -51 -19 -62 -35 -4 -6 -10 -7
-14 -4 -4 4 7 15 25 25 17 10 31 23 31 29 0 6 11 21 25 34 14 13 25 32 25 41
0 10 9 41 20 69 11 28 20 57 20 64 0 22 -178 204 -226 232 -45 27 -57 57 -32
82 7 7 12 56 13 134 1 116 16 198 34 198 5 0 20 -17 35 -38 20 -30 26 -50 26
-94 0 -59 7 -88 20 -88 5 0 12 9 15 20 11 35 21 22 45 -56 12 -41 24 -73 27
-70 3 2 0 20 -6 38 -23 70 13 225 70 309 15 21 17 33 9 60 -15 51 -13 52 24
19 36 -33 69 -109 86 -201 6 -30 13 -62 16 -73 4 -12 2 -16 -5 -12 -7 5 -11
-3 -12 -21 l-1 -28 -8 30 c-7 28 -8 29 -9 4 0 -14 4 -30 11 -37 9 -9 8 -16 -4
-29 -9 -10 -19 -34 -23 -53 -4 -19 -15 -43 -25 -52 -15 -15 -21 -15 -45 -2
-15 8 -32 14 -39 14 -17 0 67 -49 84 -50 9 0 24 -14 34 -30 14 -25 16 -37 7
-62 -9 -25 -8 -35 3 -47 7 -9 17 -27 21 -41 4 -14 16 -34 26 -45 14 -16 18
-39 20 -105 1 -46 4 -104 7 -128 4 -38 7 -43 25 -38 18 4 77 -18 77 -30 0 -2
-13 2 -30 11 -38 19 -38 19 -33 -9 3 -13 16 -29 29 -35 15 -7 22 -16 18 -26
-4 -10 3 -18 22 -25 16 -6 41 -23 56 -37 36 -34 72 -142 71 -213 0 -40 2 -48
7 -30 6 20 8 15 10 -25 1 -27 3 -63 4 -78 1 -16 -3 -31 -9 -35 -18 -11 -45
-12 -45 -1 0 5 5 7 12 3 7 -4 8 -3 4 5 -4 6 -11 9 -15 7 -4 -3 -8 1 -8 9 0 8
4 12 8 10 4 -3 10 2 13 11 4 9 2 13 -5 8 -8 -4 -9 1 -4 15 10 33 -3 25 -18
-12 -13 -29 -11 -37 15 -92 15 -33 28 -70 28 -81 0 -26 -54 -82 -92 -96 -22
-8 -28 -16 -28 -38 0 -24 13 -38 81 -89 62 -47 88 -61 115 -61 19 0 34 4 34 8
0 5 6 9 14 9 15 0 89 43 83 49 -2 2 -18 -2 -35 -8 -31 -12 -34 -11 -73 28
l-41 41 -32 -34 c-22 -25 -36 -32 -49 -27 -17 6 -16 8 5 31 13 14 35 34 50 44
l26 19 51 -53 c28 -28 51 -47 51 -42 0 6 -25 35 -55 65 l-56 55 -49 -51 c-27
-28 -53 -48 -58 -45 -4 3 19 32 53 63 l62 57 46 -53 c54 -63 107 -92 137 -76
11 6 18 15 15 20 -3 6 1 7 9 4 10 -4 16 -1 16 9 0 8 8 21 17 28 15 12 16 12
10 -3 -3 -10 -2 -18 3 -18 15 0 17 34 2 64 -7 15 -12 37 -9 47 3 11 -9 36 -30
65 -30 39 -34 49 -24 67 23 46 49 137 41 142 -5 3 -18 1 -29 -5 -16 -8 -21 -6
-26 10 -3 11 -10 20 -15 20 -4 0 -3 -11 3 -25 7 -14 15 -25 20 -25 11 0 9 -53
-4 -89 -8 -22 -15 -29 -22 -22 -7 7 -6 20 3 41 12 28 10 36 -15 86 -15 30 -25
57 -22 60 3 3 -4 15 -15 26 -11 11 -17 26 -14 33 3 8 1 17 -5 20 -8 5 -5 450
4 564 2 19 -18 38 -103 103 -58 44 -116 88 -130 99 -13 10 -27 19 -31 19 -4 0
-10 12 -14 27 -3 15 -21 45 -38 67 -29 36 -32 47 -34 116 0 41 -6 93 -12 115
-13 51 -13 58 0 50 5 -4 19 1 29 10 16 15 17 19 4 43 -8 15 -14 32 -14 38 0 6
-16 60 -35 119 -20 59 -41 140 -47 179 -10 61 -17 77 -51 113 l-40 42 46 88
c25 48 48 105 52 126 l8 39 -39 -24 c-22 -13 -51 -30 -66 -37 -31 -16 -149
-119 -186 -162 l-25 -30 22 -15 c21 -15 28 -34 12 -34 -4 0 -20 9 -34 21 -25
19 -26 22 -12 43 8 12 13 25 10 28 -4 3 6 15 20 26 14 11 30 34 36 50 7 22 15
29 26 25 13 -5 13 -3 4 15 -17 33 -13 84 14 164 14 40 25 74 25 76 0 8 116 -1
170 -14 73 -17 132 -48 174 -93 25 -26 28 -34 19 -53 -9 -19 -4 -32 29 -81 92
-136 129 -268 95 -336 -9 -18 -14 -38 -11 -45 8 -22 -49 -79 -109 -109 -38
-19 -54 -33 -51 -42 3 -8 -3 -27 -15 -43 -17 -25 -18 -32 -7 -47 8 -12 19 -16
30 -12 13 5 16 3 11 -11 -3 -13 6 -31 30 -56 29 -31 38 -35 54 -26 11 5 28 10
39 10 11 0 25 7 32 15 7 8 25 15 41 15 22 0 30 6 35 25 3 14 10 22 15 19 5 -3
9 6 9 21 0 14 6 41 14 59 8 19 16 56 18 82 1 27 6 51 9 54 4 3 3 28 -2 55 -11
70 -10 158 4 239 l12 70 48 -55 c54 -62 163 -231 214 -334 72 -142 143 -364
129 -401 -5 -12 12 -166 19 -173 3 -2 12 2 20 9 13 11 14 15 3 21 -23 13 -22
122 2 176 12 26 20 62 18 80 -4 49 10 51 28 5 13 -31 23 -42 45 -47 16 -4 32
-11 35 -17 5 -8 -1 -9 -17 -4 -55 18 -72 13 -96 -29 -17 -29 -22 -48 -17 -70
3 -16 6 -38 6 -48 -1 -13 4 -16 19 -12 14 5 19 2 19 -12 0 -29 -28 -61 -71
-83 -21 -11 -39 -24 -39 -29 0 -25 24 -71 40 -76 26 -8 31 -28 14 -61 -13 -25
-13 -33 5 -78 11 -28 22 -61 26 -73 3 -13 10 -23 16 -23 9 0 99 172 99 190 0
6 -8 10 -17 8 -11 -2 -17 2 -15 11 2 10 -5 12 -23 9 -21 -4 -29 0 -42 26 -9
17 -18 26 -20 19 -2 -7 1 -22 8 -35 12 -22 11 -22 -7 -8 -10 8 -20 14 -21 15
-1 0 -4 12 -8 27 -6 24 -5 26 17 21 18 -4 20 -3 8 6 -17 12 -10 14 14 5 9 -3
14 -9 12 -13 -3 -4 -1 -13 3 -20 14 -22 67 12 74 48 4 17 23 46 44 65 42 38
54 39 29 2 -9 -14 -16 -32 -16 -40 0 -8 -5 -18 -11 -22 -8 -4 -9 1 -4 17 14
47 -15 4 -35 -52 -11 -29 -20 -54 -20 -55 0 -1 8 -4 18 -6 15 -4 18 -1 15 17
-3 13 5 33 19 51 13 16 32 51 42 78 l19 48 -29 23 c-20 16 -33 20 -41 13 -18
-15 -32 -1 -29 30 2 15 5 45 6 67 l2 40 8 -40 c5 -24 4 -45 -2 -52 -7 -9 -7
-13 0 -13 36 0 38 102 3 137 -9 9 -17 20 -17 25 -1 4 -2 9 -3 11 -2 1 -4 13
-7 26 -2 14 -8 29 -13 35 -5 6 -12 29 -16 51 -9 53 -107 268 -167 369 -62 104
-120 162 -235 239 -99 65 -104 73 -82 135 10 30 8 35 -53 104 -34 39 -78 85
-95 102 -29 26 -47 66 -24 52 5 -3 11 7 14 22 4 18 -6 64 -27 126 -32 94 -33
97 -48 74 -8 -13 -18 -32 -22 -43 -5 -13 -10 -15 -13 -8 -6 17 33 79 54 87 9
4 13 9 9 13 -9 9 -76 -58 -76 -76 -1 -13 -3 -13 -11 2 -6 10 -8 30 -4 45 4 20
-4 49 -25 98 -45 98 -45 99 -69 102 -16 3 -21 10 -21 33 0 31 -30 69 -55 69
-8 0 -33 -16 -55 -36z m60 -44 c0 -5 -2 -10 -4 -10 -3 0 -8 5 -11 10 -3 6 -1
10 4 10 6 0 11 -4 11 -10z m-220 -25 c0 -8 -6 -12 -14 -9 -27 11 -53 -15 -75
-75 -15 -42 -32 -69 -55 -86 -20 -16 -36 -38 -40 -57 -6 -29 -20 -46 -58 -69
-26 -14 -22 -3 10 26 16 16 20 23 10 19 -24 -8 -23 8 3 37 l20 24 -6 -25 c-5
-22 -3 -21 11 5 8 17 28 37 43 46 19 11 32 32 46 75 10 32 23 64 27 69 7 8 44
25 76 34 1 1 2 -6 2 -14z m30 1 c0 -3 -4 -8 -10 -11 -5 -3 -10 -1 -10 4 0 6 5
11 10 11 6 0 10 -2 10 -4z m-440 -27 c0 -5 -4 -9 -10 -9 -5 0 -10 7 -10 16 0
8 5 12 10 9 6 -3 10 -10 10 -16z m445 -9 c3 -6 -1 -7 -9 -4 -18 7 -21 14 -7
14 6 0 13 -4 16 -10z m53 -49 c-7 -12 -16 -21 -21 -21 -8 0 -2 14 16 38 16 20
20 6 5 -17z m-591 -84 c-11 -17 -12 -28 -4 -43 9 -17 9 -18 -6 -5 -21 17 -21
27 1 56 22 29 30 23 9 -8z m210 -43 c-12 -12 14 -44 35 -44 20 0 20 -1 4 -19
-10 -11 -15 -25 -11 -31 8 -13 -14 -42 -26 -35 -4 3 -5 15 0 27 4 12 2 36 -5
57 -11 34 -10 51 3 51 4 0 3 -3 0 -6z m451 -71 c-8 -10 -6 -13 6 -13 10 0 16
-9 16 -25 0 -14 -4 -25 -10 -25 -5 0 -10 6 -10 14 0 35 -21 22 -54 -33 -31
-50 -71 -87 -118 -109 -13 -6 -9 23 4 36 6 6 28 50 48 98 43 100 71 124 107
90 16 -15 19 -24 11 -33z m108 -11 c18 -22 34 -46 36 -53 7 -22 25 -1 44 51
23 64 41 67 34 6 -1 -11 -13 -44 -26 -74 l-24 -54 48 -46 c26 -26 51 -45 55
-44 5 1 11 -7 14 -18 5 -21 6 -21 22 2 9 13 16 26 17 31 1 4 2 10 3 13 0 4 7
1 14 -5 17 -13 8 -93 -18 -172 -15 -44 -16 -58 -5 -86 6 -19 9 -37 6 -40 -3
-3 -9 3 -13 15 -5 11 -12 20 -18 20 -5 -1 -18 11 -29 25 -18 24 -18 30 -6 67
15 45 26 51 33 18 3 -14 5 -8 6 15 0 21 -3 36 -7 33 -5 -3 -35 18 -68 45 -32
28 -69 56 -81 62 -13 5 -23 15 -23 21 0 6 -25 60 -55 121 -30 60 -55 111 -55
112 0 2 15 -3 33 -10 17 -7 46 -32 63 -55z m-567 8 c1 -13 0 -13 -9 0 -5 8 -9
24 -9 35 l0 20 9 -20 c5 -11 9 -27 9 -35z m-195 24 c17 -6 22 -84 10 -131 -13
-47 -25 -9 -20 60 3 40 3 63 0 52 -2 -11 -9 -38 -15 -60 -8 -32 -7 -46 5 -70
9 -17 16 -38 16 -49 0 -25 -59 -104 -108 -143 l-40 -32 -6 57 c-6 54 -4 64 38
152 25 52 45 88 46 80 0 -8 12 9 26 38 14 28 27 52 29 52 2 0 10 -3 19 -6z
m268 -168 l28 -39 -22 -24 c-45 -48 33 -12 90 41 23 22 42 35 42 29 0 -18 -88
-90 -118 -96 -34 -7 -50 7 -33 27 11 13 8 22 -19 56 -36 46 -38 46 -57 23 -34
-44 -44 -73 -33 -96 10 -20 9 -19 -9 3 -11 14 -21 28 -21 31 0 4 21 30 46 58
52 58 54 58 106 -13z m452 42 c9 -12 19 -37 22 -55 5 -25 17 -39 54 -62 78
-48 119 -89 113 -112 -3 -11 -8 -19 -12 -17 -3 2 -56 27 -116 57 -120 59 -136
67 -177 75 l-27 6 51 65 c29 36 58 65 64 65 7 0 20 -10 28 -22z m-494 -121 c0
-5 -4 -5 -10 -2 -5 3 -10 14 -10 23 0 15 2 15 10 2 5 -8 10 -19 10 -23z m-95
-25 c-7 -7 -55 27 -55 39 0 5 13 0 30 -12 16 -13 28 -25 25 -27z m340 28 c-10
-11 -23 -19 -29 -18 -6 1 -24 -5 -41 -15 -16 -9 -25 -16 -20 -17 6 0 3 -5 -5
-11 -12 -9 -12 -10 5 -6 16 3 20 -1 19 -25 0 -15 -10 -38 -21 -51 -34 -37 -61
-109 -51 -137 7 -18 5 -26 -7 -32 -8 -5 -15 -14 -15 -20 0 -6 9 -3 20 7 16 14
19 26 14 48 -7 34 10 80 47 126 15 18 25 39 23 45 -2 6 3 20 12 31 8 11 13 14
9 8 -9 -19 6 -16 21 5 13 16 14 16 8 0 -3 -10 -1 -18 5 -18 6 0 11 6 11 13 0
7 15 26 33 43 l32 29 -25 -30 c-33 -40 -46 -64 -55 -103 -3 -18 -12 -32 -18
-33 -7 0 -25 -17 -42 -37 -28 -36 -28 -36 -2 -13 15 14 27 19 27 12 0 -7 5 -9
10 -6 16 10 12 -12 -5 -29 -8 -8 -15 -19 -15 -25 0 -15 -30 -62 -71 -109 -25
-29 -41 -40 -53 -36 -19 7 -19 6 -6 39 5 14 6 24 1 21 -17 -11 -22 -57 -9 -74
14 -17 14 -17 -37 4 -10 4 -14 1 -12 -7 2 -8 2 -11 0 -6 -8 13 -25 8 -20 -6 3
-8 -5 -14 -24 -15 -34 -3 -35 -2 -10 27 11 13 17 29 14 38 -5 13 -2 13 25 -1
17 -9 35 -16 39 -16 4 1 -9 10 -30 21 -37 19 -40 20 -58 3 -22 -20 -22 -21
-44 31 -20 44 -20 42 -10 68 4 9 3 17 -3 17 -21 0 -21 -46 0 -86 13 -25 19
-48 14 -59 -6 -16 -10 -14 -29 16 -14 23 -22 54 -25 99 -2 36 -4 85 -5 110 -2
25 -8 55 -15 67 -9 17 -9 22 3 27 8 3 15 0 15 -7 0 -9 3 -8 9 1 9 16 41 -60
41 -99 0 -16 13 -38 35 -59 l35 -34 44 43 c24 24 48 57 53 74 5 18 14 32 20
32 7 0 18 7 25 15 11 12 11 12 -4 1 -10 -7 -18 -10 -18 -6 0 6 37 56 58 78 18
19 79 53 89 50 6 -2 14 1 18 6 3 6 9 11 12 11 3 0 -2 -9 -12 -20z m-275 -20
c0 -5 -4 -10 -10 -10 -5 0 -10 5 -10 10 0 6 5 10 10 10 6 0 10 -4 10 -10z
m143 -2 c-4 -7 -8 -15 -8 -18 -1 -3 -4 -14 -8 -25 -8 -22 -47 -52 -47 -35 0 6
7 13 15 16 8 4 12 11 8 17 -4 6 -1 7 7 2 9 -5 10 -2 6 13 -5 14 -1 24 11 31
24 14 26 13 16 -1z m-116 -26 c-10 -10 -17 -26 -17 -35 0 -29 -35 -19 -47 13
-6 17 -8 30 -4 30 4 0 11 -12 17 -27 l9 -28 24 38 c13 21 26 36 29 33 3 -3 -2
-14 -11 -24z m-190 -19 c-3 -10 -5 -4 -5 12 0 17 2 24 5 18 2 -7 2 -21 0 -30z
m38 17 c3 -6 -1 -7 -9 -4 -18 7 -21 14 -7 14 6 0 13 -4 16 -10z m215 0 c0 -5
-4 -10 -10 -10 -5 0 -10 5 -10 10 0 6 5 10 10 10 6 0 10 -4 10 -10z m-166 -46
c3 -8 2 -12 -4 -9 -6 3 -10 10 -10 16 0 14 7 11 14 -7z m520 -186 c-5 -8 -2
-9 10 -5 21 8 20 7 -19 -72 -17 -33 -35 -58 -42 -56 -6 2 -14 -1 -17 -8 -3 -9
-7 -8 -14 2 -7 9 -12 10 -16 2 -4 -6 -14 -11 -22 -11 -10 0 -14 12 -14 43 0
41 2 44 56 80 56 37 92 48 78 25z m-604 -93 c0 -12 3 -25 7 -29 4 -3 8 -14 9
-23 4 -27 -14 -1 -41 62 l-27 60 26 -24 c14 -14 26 -34 26 -46z m460 -37 c0
-24 0 -54 0 -67 0 -14 -5 -28 -11 -32 -6 -3 -10 -10 -10 -15 1 -5 -5 -9 -11
-9 -7 0 -13 11 -13 23 0 13 -8 28 -18 33 -9 6 -17 15 -17 22 0 16 58 87 71 87
5 0 9 -19 9 -42z m-321 20 c-2 -2 -17 -14 -34 -28 l-30 -25 29 32 c16 18 32
31 34 28 3 -3 3 -6 1 -7z m86 -73 c-16 -14 -40 -25 -52 -26 -13 -1 -29 -2 -35
-3 -20 -3 -48 13 -47 27 0 9 2 9 6 0 8 -22 97 -16 118 7 10 11 23 20 29 20 6
-1 -2 -12 -19 -25z m329 -30 c18 -28 21 -51 6 -60 -5 -3 -7 0 -5 8 3 7 -3 22
-15 32 -20 18 -27 45 -11 45 5 0 16 -11 25 -25z m-265 -19 c-10 -9 -89 -46
-89 -41 0 6 72 44 84 45 5 0 7 -2 5 -4z m-179 -48 c0 -5 -11 -1 -25 8 -14 9
-25 18 -25 20 0 2 11 -2 25 -8 14 -6 25 -15 25 -20z m71 20 c4 -51 -11 -98
-31 -98 -7 0 -30 53 -30 68 0 2 8 -2 17 -9 12 -10 15 -10 9 -1 -10 17 2 52 20
52 8 0 14 -6 15 -12z m136 -75 c-3 -10 -5 -4 -5 12 0 17 2 24 5 18 2 -7 2 -21
0 -30z m-261 -38 c-6 -59 -4 -70 19 -109 36 -61 31 -71 -6 -12 -29 46 -30 52
-24 117 4 38 9 69 12 69 3 0 3 -29 -1 -65z m-38 25 c-7 -10 -14 -17 -17 -15
-4 4 18 35 25 35 2 0 -1 -9 -8 -20z m106 4 c3 -8 2 -12 -4 -9 -6 3 -10 10 -10
16 0 14 7 11 14 -7z m62 -16 c-8 -12 -14 -25 -14 -28 1 -3 -4 -14 -11 -25 -7
-11 -10 -13 -8 -5 2 8 -3 23 -11 33 -14 16 -14 17 0 12 10 -4 23 3 35 18 22
31 30 27 9 -5z m894 -46 c0 -7 -4 -10 -10 -7 -11 7 -55 -14 -46 -22 3 -3 12 0
21 7 12 10 16 8 24 -11 6 -18 3 -31 -12 -54 l-21 -29 -14 48 c-14 47 -13 49
14 77 27 29 43 25 44 -9z m-797 -87 c-29 -38 -53 -73 -53 -77 0 -5 -5 -8 -10
-8 -14 0 2 29 56 100 24 32 44 69 45 82 l1 23 7 -25 c5 -20 -3 -38 -46 -95z
m-286 63 c-3 -7 -5 -2 -5 12 0 14 2 19 5 13 2 -7 2 -19 0 -25z m-217 -17 c0
-29 -27 -34 -33 -5 -3 18 0 24 14 24 12 0 19 -7 19 -19z m670 -11 c-6 -11 -24
-39 -39 -63 -26 -37 -30 -54 -36 -151 -4 -60 -11 -119 -16 -130 -5 -13 -7 13
-3 69 10 171 10 170 53 234 41 59 63 82 41 41z m-444 -40 c4 -11 7 -12 13 -2
6 10 17 3 40 -25 18 -21 42 -49 55 -63 60 -66 111 -212 105 -299 -2 -22 0 -43
4 -47 15 -15 6 -52 -24 -97 -17 -26 -34 -47 -39 -47 -4 0 -11 21 -15 47 -5 38
-15 56 -47 86 -32 30 -43 36 -50 25 -8 -10 -9 -10 -5 2 2 8 -6 26 -19 40 -32
35 -104 203 -104 243 0 18 5 39 11 47 8 11 9 3 4 -31 -5 -43 -2 -53 34 -110
22 -35 56 -86 76 -113 19 -27 35 -56 35 -64 0 -11 3 -13 10 -6 13 13 15 58 5
204 -8 123 -8 126 -41 164 -39 46 -46 38 -9 -10 41 -54 28 -51 -15 4 -23 28
-40 60 -39 73 1 23 2 21 15 -21z m-425 -12 c11 -21 11 -22 -4 -9 -10 7 -17 17
-17 22 0 15 9 10 21 -13z m588 -10 c9 -23 -2 -58 -17 -58 -9 0 -15 58 -7 71 9
14 15 11 24 -13z m-336 -18 c-3 -11 -9 -20 -15 -20 -5 0 -4 9 2 20 6 11 12 20
14 20 2 0 2 -9 -1 -20z m1007 -8 c0 -10 -21 -32 -31 -32 -4 0 -5 9 -2 20 5 19
33 29 33 12z m-1169 -105 c6 -24 5 -26 -12 -17 -10 6 -19 20 -19 31 0 29 22
18 31 -14z m406 1 c-3 -7 -5 -2 -5 12 0 14 2 19 5 13 2 -7 2 -19 0 -25z m263
-24 c0 -19 -4 -33 -8 -30 -8 5 -4 66 4 66 2 0 4 -16 4 -36z m-263 -99 c0 -38
-2 -47 -4 -22 -2 20 -7 37 -11 37 -6 0 -7 54 -2 85 5 28 18 -48 17 -100z m943
91 c0 -3 -4 -8 -10 -11 -5 -3 -10 -1 -10 4 0 6 5 11 10 11 6 0 10 -2 10 -4z
m-120 -36 c0 -11 -7 -20 -15 -20 -13 0 -13 3 -3 20 7 11 14 20 15 20 2 0 3 -9
3 -20z m41 -3 c-10 -9 -11 -8 -5 6 3 10 9 15 12 12 3 -3 0 -11 -7 -18z m-851
-133 c0 -8 -4 -12 -10 -9 -5 3 -10 10 -10 16 0 5 5 9 10 9 6 0 10 -7 10 -16z
m274 0 c3 -8 2 -12 -4 -9 -6 3 -10 10 -10 16 0 14 7 11 14 -7z m1290 -123 c15
-16 16 -25 6 -61 -9 -35 -13 -40 -26 -29 -12 10 -15 10 -12 -1 2 -7 -3 -15
-10 -17 -9 -4 -10 2 -1 24 5 15 8 42 5 59 -9 46 9 58 38 25z m76 -20 c0 -3
-12 -14 -26 -25 -26 -18 -26 -18 -15 3 7 11 9 21 6 21 -4 0 -4 4 0 10 6 10 35
3 35 -9z m-179 -101 c-22 -19 -41 -19 -41 0 0 9 22 17 50 19 10 0 7 -6 -9 -19z
m69 -21 c-7 -11 -14 -18 -17 -15 -3 3 0 12 7 21 18 21 23 19 10 -6z m-900 -52
c0 -5 -4 -5 -10 -2 -5 3 -10 14 -10 23 0 15 2 15 10 2 5 -8 10 -19 10 -23z
m869 -83 c-12 -13 -18 -24 -11 -24 16 0 22 -30 14 -70 l-8 -35 -13 58 c-11 51
-11 61 3 76 9 10 13 21 9 25 -4 4 1 4 10 0 17 -6 16 -8 -4 -30z m56 26 c4 -6
11 -8 16 -4 6 3 1 -14 -11 -37 -24 -47 -37 -65 -27 -37 4 11 2 15 -7 12 -20
-8 -28 25 -11 42 8 9 15 20 15 25 0 12 17 12 25 -1z m-783 -98 c1 -36 -21
-102 -33 -102 -6 0 -7 -4 -4 -10 3 -5 2 -10 -2 -10 -10 0 -83 49 -83 56 0 7
38 -15 45 -26 13 -22 35 -10 35 20 0 16 5 52 11 81 9 41 13 49 21 35 5 -9 10
-29 10 -44z m-668 1 c-15 -35 -34 -64 -34 -51 0 10 28 73 36 81 14 13 13 7 -2
-30z m246 -142 c0 -9 -101 -74 -106 -68 -3 3 93 74 104 76 1 1 2 -3 2 -8z
m335 -161 c3 -5 2 -10 -4 -10 -5 0 -13 5 -16 10 -3 6 -2 10 4 10 5 0 13 -4 16
-10z m63 -69 c3 -9 -2 -9 -22 0 -14 7 -26 16 -26 20 0 12 43 -6 48 -20z m-423
-51 c-10 -11 -22 -17 -28 -13 -6 4 -3 12 8 20 28 20 41 16 20 -7z m-53 -42
c-8 -8 -9 -4 -5 13 4 13 8 18 11 10 2 -7 -1 -18 -6 -23z m116 -147 c19 -6 45
-6 65 -1 30 9 31 8 12 -6 -11 -8 -20 -20 -20 -26 0 -7 -15 -21 -33 -31 -32
-19 -33 -19 -47 -1 -22 29 -18 37 18 30 l32 -6 -23 16 c-23 16 -26 15 -93 -31
-38 -26 -69 -51 -69 -55 0 -5 9 -12 20 -15 11 -3 20 -11 20 -16 0 -12 -36 6
-46 23 -9 14 82 102 96 93 6 -3 10 0 10 9 0 8 6 17 13 19 6 3 12 6 12 6 0 1
15 -3 33 -8z m660 -137 c-4 -3 -12 5 -18 18 -12 22 -12 22 6 6 10 -10 15 -20
12 -24z m-648 -24 c0 -5 -2 -10 -4 -10 -3 0 -8 5 -11 10 -3 6 -1 10 4 10 6 0
11 -4 11 -10z m-150 -61 c0 -5 -10 -9 -22 -8 -13 0 -17 3 -10 6 6 2 10 9 7 14
-4 5 1 6 9 3 9 -3 16 -10 16 -15z m-480 -64 c8 -20 14 -24 27 -17 27 14 145
24 138 12 -3 -6 -18 -10 -33 -10 -20 0 -23 -3 -13 -9 12 -8 9 -11 -12 -16 -15
-4 -24 -11 -21 -16 3 -5 -4 -9 -15 -9 -12 0 -21 -5 -21 -12 0 -6 -10 -3 -22 8
-19 17 -21 17 -15 2 9 -26 2 -22 -19 10 -15 23 -15 25 -1 13 21 -17 22 -3 2
23 -15 19 -20 46 -10 46 3 0 10 -11 15 -25z m1270 -110 c-7 -8 -17 -15 -22
-15 -5 0 -16 -7 -24 -15 -17 -17 -39 -20 -29 -5 5 9 72 48 84 50 2 0 -2 -7 -9
-15z m-250 -19 c0 -33 -27 -42 -33 -11 -4 22 4 32 26 34 4 1 7 -10 7 -23z
m251 -26 c-19 -16 -37 -27 -40 -24 -6 6 50 53 64 53 6 0 -5 -13 -24 -29z
m-144 -116 c-3 -3 -12 -4 -19 -1 -8 3 -5 6 6 6 11 1 17 -2 13 -5z"/>
<path d="M5426 3045 c-9 -26 -7 -32 5 -12 6 10 9 21 6 23 -2 3 -7 -2 -11 -11z"/>
<path d="M5731 2657 c-2 -13 30 -69 36 -64 3 3 2 20 -2 38 -5 20 -10 27 -15
19 -6 -10 -9 -9 -13 1 -3 8 -6 10 -6 6z"/>
<path d="M4739 2818 c-48 -66 -70 -101 -52 -83 23 22 107 145 101 145 -2 0
-25 -28 -49 -62z"/>
<path d="M4898 2620 c10 -27 20 -50 24 -50 9 0 -21 88 -32 95 -4 3 -1 -17 8
-45z"/>
<path d="M4995 2210 c3 -5 8 -10 11 -10 2 0 4 5 4 10 0 6 -5 10 -11 10 -5 0
-7 -4 -4 -10z"/>
<path d="M5041 1573 c-10 -26 -10 -27 4 -9 8 11 15 23 15 28 0 15 -7 8 -19
-19z"/>
<path d="M5001 1574 c0 -11 3 -14 6 -6 3 7 2 16 -1 19 -3 4 -6 -2 -5 -13z"/>
<path d="M6485 1501 c-3 -5 -2 -12 3 -15 5 -3 9 1 9 9 0 17 -3 19 -12 6z"/>
<path d="M6478 1280 c-14 -13 -15 -17 -3 -17 8 0 17 7 20 15 8 21 3 22 -17 2z"/>
<path d="M4730 279 c0 -4 7 -12 15 -19 11 -9 15 -9 15 -1 0 6 10 16 23 21 18
7 16 9 -15 7 -21 -1 -38 -5 -38 -8z"/>
<path d="M2666 3124 c-9 -26 -16 -52 -15 -58 0 -6 9 13 20 43 10 30 17 56 15
58 -2 2 -11 -17 -20 -43z"/>
<path d="M720 3025 c-7 -9 -11 -17 -9 -20 3 -2 10 5 17 15 14 24 10 26 -8 5z"/>
<path d="M722 2940 c0 -19 2 -27 5 -17 2 9 2 25 0 35 -3 9 -5 1 -5 -18z"/>
<path d="M811 2924 c0 -11 3 -14 6 -6 3 7 2 16 -1 19 -3 4 -6 -2 -5 -13z"/>
<path d="M835 2897 c-21 -27 -35 -57 -26 -57 6 0 6 -12 -1 -31 -8 -22 -13 -27
-19 -18 -10 17 -29 -28 -21 -51 3 -8 1 -11 -4 -7 -5 5 -9 22 -10 39 -1 17 -7
34 -14 38 -7 4 -12 27 -12 50 1 67 -9 39 -14 -40 -4 -57 -2 -71 8 -67 7 2 12
11 12 20 -1 9 3 14 8 11 5 -3 7 -13 4 -21 -7 -16 10 -53 23 -53 5 0 12 11 15
25 4 17 11 23 19 19 7 -4 9 -3 4 1 -8 9 12 45 52 90 l26 30 -27 -24 -28 -24 0
23 c0 13 7 32 17 42 9 10 12 18 7 18 -5 -1 -13 -6 -19 -13z"/>
<path d="M634 2854 c17 -42 17 -139 1 -220 -15 -75 -62 -185 -86 -199 -5 -4
-8 -36 -7 -73 l1 -67 6 65 c5 53 13 75 44 120 20 30 37 60 37 67 0 7 8 13 18
13 11 0 13 3 5 8 -8 5 -9 21 -3 53 11 58 13 146 5 179 -4 14 5 0 20 -30 14
-30 32 -62 40 -70 11 -13 10 -27 -6 -90 -22 -86 -24 -114 -9 -90 5 8 10 24 10
35 0 11 9 38 20 60 18 37 19 37 15 10 l-5 -30 11 28 c9 24 7 33 -13 65 -14 20
-39 67 -57 104 -17 37 -37 70 -43 74 -8 5 -9 1 -4 -12z"/>
<path d="M875 2775 c-17 -73 -39 -133 -61 -167 -13 -21 -24 -42 -24 -47 0 -5
-12 -19 -26 -30 -30 -24 -19 -29 13 -6 40 28 123 231 110 267 -2 7 -8 0 -12
-17z"/>
<path d="M1320 2726 c-20 -53 -20 -80 -1 -32 11 28 19 52 16 54 -2 3 -9 -7
-15 -22z"/>
<path d="M676 2624 c-9 -20 -15 -38 -13 -41 3 -2 13 14 24 37 11 22 17 40 14
40 -4 0 -15 -16 -25 -36z"/>
<path d="M4659 2624 c-23 -25 -23 -26 -2 -15 23 12 38 29 31 37 -3 2 -15 -8
-29 -22z"/>
<path d="M667 2525 c-4 -8 -2 -17 3 -20 6 -4 10 3 10 14 0 25 -6 27 -13 6z"/>
<path d="M1250 2481 c0 -6 4 -13 10 -16 6 -3 7 1 4 9 -7 18 -14 21 -14 7z"/>
<path d="M1256 2400 c-14 -22 -23 -40 -19 -40 10 0 56 70 50 76 -2 2 -16 -14
-31 -36z"/>
<path d="M721 2394 c-12 -19 -25 -32 -31 -29 -6 4 -7 -1 -3 -11 6 -15 7 -15
20 2 19 25 45 74 39 74 -2 0 -13 -16 -25 -36z"/>
<path d="M1261 2334 c0 -11 3 -14 6 -6 3 7 2 16 -1 19 -3 4 -6 -2 -5 -13z"/>
<path d="M552 2270 c0 -14 2 -19 5 -12 2 6 2 18 0 25 -3 6 -5 1 -5 -13z"/>
<path d="M4732 2260 c0 -14 2 -19 5 -12 2 6 2 18 0 25 -3 6 -5 1 -5 -13z"/>
<path d="M703 2225 c0 -22 2 -30 4 -17 2 12 2 30 0 40 -3 9 -5 -1 -4 -23z"/>
<path d="M895 2120 c-10 -30 -28 -77 -41 -103 -13 -27 -17 -44 -9 -37 18 15
78 166 73 182 -3 7 -13 -12 -23 -42z"/>
<path d="M1187 2164 c-4 -4 -7 -14 -7 -23 0 -11 3 -12 11 -4 6 6 10 16 7 23
-2 6 -7 8 -11 4z"/>
<path d="M600 2155 c0 -5 5 -17 10 -25 5 -8 10 -10 10 -5 0 6 -5 17 -10 25 -5
8 -10 11 -10 5z"/>
<path d="M1159 2103 c-13 -16 -12 -17 4 -4 9 7 17 15 17 17 0 8 -8 3 -21 -13z"/>
<path d="M1071 2063 c7 -12 15 -20 18 -17 3 2 -3 12 -13 22 -17 16 -18 16 -5
-5z"/>
<path d="M724 1985 c16 -24 15 -27 -9 -65 -17 -27 -21 -40 -12 -40 23 0 57
-45 57 -74 0 -33 35 -86 57 -86 11 0 14 6 9 23 -3 12 -6 28 -6 35 0 6 -5 12
-10 12 -6 0 -8 -12 -4 -27 l5 -28 -21 25 c-13 15 -20 33 -17 47 3 16 -5 33
-25 55 -18 19 -26 37 -23 48 8 24 34 33 53 18 8 -7 0 8 -19 34 -35 48 -64 67
-35 23z"/>
<path d="M1730 1955 c-8 -9 -8 -15 -2 -15 12 0 26 19 19 26 -2 2 -10 -2 -17
-11z"/>
<path d="M620 1934 c0 -16 -8 -45 -18 -64 -14 -27 -17 -43 -10 -68 5 -18 13
-30 17 -28 8 5 61 -100 61 -120 0 -8 38 -38 50 -39 3 0 11 -4 18 -8 7 -5 12
-4 12 2 0 6 -13 17 -29 25 -20 11 -39 37 -61 83 -30 64 -31 71 -21 117 12 51
8 75 -4 35 -4 -13 -14 -29 -21 -37 -12 -11 -14 -11 -14 5 0 11 4 23 9 29 17
19 32 77 21 88 -7 7 -10 0 -10 -20z"/>
<path d="M1630 1935 c0 -5 5 -17 10 -25 5 -8 10 -10 10 -5 0 6 -5 17 -10 25
-5 8 -10 11 -10 5z"/>
<path d="M804 1903 c1 -37 11 -43 19 -13 3 11 1 18 -3 15 -5 -3 -11 3 -13 12
-2 10 -4 3 -3 -14z"/>
<path d="M1896 1888 c-9 -12 -16 -28 -16 -35 0 -19 -9 -16 -32 10 l-20 22 14
-24 c22 -38 34 -36 57 9 23 44 21 53 -3 18z"/>
<path d="M684 1825 c-3 -20 -4 -39 0 -42 3 -4 6 4 6 16 0 12 5 31 10 42 7 12
7 19 1 19 -6 0 -13 -16 -17 -35z"/>
<path d="M821 1845 c-1 -11 8 -37 18 -57 33 -61 78 -253 57 -245 -41 17 -46
18 -46 8 0 -6 7 -11 15 -11 20 0 95 -47 95 -60 0 -6 -10 -10 -21 -10 -17 0
-19 -3 -10 -14 7 -8 8 -22 3 -36 -10 -26 -16 -20 -26 24 -4 15 -10 26 -13 22
-3 -3 2 -26 11 -51 25 -63 6 -90 -26 -37 -10 15 -18 21 -18 13 0 -7 16 -29 36
-47 38 -37 38 -44 -2 -18 -13 9 -27 14 -31 10 -16 -16 74 -138 132 -178 25
-18 40 -35 35 -38 -7 -4 -8 -23 -4 -48 5 -30 3 -42 -5 -42 -7 0 -10 -4 -7 -9
3 -4 6 -44 7 -88 2 -69 -1 -83 -21 -110 -15 -21 -20 -37 -15 -50 6 -15 9 -12
17 17 9 30 11 32 18 15 7 -17 8 -16 12 10 l5 30 2 -32 c1 -23 -3 -33 -14 -33
-8 0 -15 -5 -15 -11 0 -5 5 -7 10 -4 6 3 10 -2 10 -11 0 -10 -3 -14 -7 -11 -3
4 -12 2 -19 -4 -9 -7 -14 -5 -19 10 -3 12 -11 21 -16 21 -12 0 -1 -43 12 -48
5 -2 9 -10 9 -18 0 -9 -4 -13 -8 -10 -5 3 -7 -8 -4 -23 5 -38 -40 -125 -78
-147 -32 -20 -45 -40 -29 -49 5 -4 8 -1 7 6 -2 8 12 13 39 14 48 1 49 4 -32
-83 -22 -24 -35 -43 -30 -42 6 2 28 2 50 1 37 -2 39 -3 18 -14 -20 -11 -17
-12 29 -11 33 0 53 5 56 14 3 7 0 10 -6 7 -5 -4 -15 0 -22 7 -15 19 0 48 42
77 18 13 36 27 39 32 4 5 9 4 13 -2 4 -6 -9 -25 -28 -42 -20 -17 -36 -38 -36
-47 0 -10 9 -4 24 17 l24 32 22 -36 c26 -42 39 -48 14 -6 -9 16 -14 36 -11 45
8 20 37 21 37 2 0 -7 8 -20 18 -27 14 -11 15 -11 5 1 -20 22 -15 48 10 53 13
3 11 3 -6 2 -43 -3 -53 32 -19 68 19 20 35 27 64 27 35 0 38 -2 38 -28 0 -16
-9 -38 -20 -50 -12 -12 -16 -22 -11 -22 5 0 13 5 16 10 9 14 22 12 28 -4 3 -8
-4 -27 -15 -43 l-21 -28 31 30 c24 24 30 36 25 57 -3 15 -8 26 -12 24 -3 -2
-7 7 -7 20 -1 13 0 24 1 24 7 0 35 -64 35 -81 0 -10 4 -20 9 -23 5 -3 8 14 7
38 0 24 -3 43 -4 41 -7 -7 -51 38 -46 47 3 4 0 8 -5 8 -20 0 -11 19 12 25 31
10 110 56 104 62 -3 2 -30 -10 -62 -28 -57 -32 -70 -31 -77 5 -7 39 -26 28
-25 -13 1 -25 7 -41 15 -41 6 0 12 -4 12 -10 0 -5 -15 -10 -33 -10 -43 0 -97
-53 -91 -90 3 -22 2 -23 -7 -7 -13 21 -3 71 17 88 8 6 14 16 14 22 0 8 59 88
80 107 10 9 10 30 0 30 -6 0 -10 -5 -10 -12 0 -6 -2 -9 -5 -6 -3 3 2 21 10 41
20 48 18 57 -5 28 -13 -15 -20 -38 -20 -64 0 -31 -7 -48 -26 -68 -28 -29 -44
-54 -69 -106 -10 -22 -23 -33 -38 -34 -17 0 -19 -2 -5 -7 13 -6 7 -17 -37 -64
-47 -51 -59 -58 -92 -58 l-37 0 45 48 c25 26 52 56 60 66 13 18 12 19 -23 12
-21 -4 -38 -5 -38 -2 0 3 20 32 45 65 25 32 45 63 45 69 0 5 9 17 19 26 19 17
19 17 15 -6 -4 -21 -3 -21 5 -3 4 11 6 24 4 28 -6 10 66 87 81 87 5 0 1 -7
-10 -15 -17 -13 -17 -14 -2 -15 10 0 22 9 28 20 6 11 28 29 49 39 21 11 38 26
38 33 0 7 3 26 7 42 7 28 7 28 -31 21 -21 -4 -45 -8 -53 -10 -8 -1 -14 -7 -13
-12 1 -6 -14 -25 -32 -43 -41 -39 -43 -31 -19 57 9 32 17 68 16 80 0 14 4 20
11 16 6 -3 7 -1 3 6 -7 11 11 61 52 139 12 24 22 51 22 60 0 26 -68 -92 -96
-167 -30 -81 -33 -83 -27 -27 4 30 -2 68 -17 118 -12 40 -23 78 -24 85 -1 7
-6 16 -11 20 -4 4 -5 2 -1 -4 4 -8 2 -13 -5 -13 -8 0 -7 -5 2 -17 13 -15 11
-15 -16 1 -26 15 -83 80 -108 122 -7 12 66 -11 116 -37 10 -6 17 -6 17 0 0 5
-10 13 -22 16 -34 11 -68 46 -67 69 1 27 27 96 28 74 1 -9 6 -20 13 -24 7 -4
8 -3 4 4 -14 23 10 10 52 -27 35 -32 42 -45 42 -75 0 -30 -3 -36 -22 -37 -21
0 -21 -1 -4 -8 10 -4 24 -20 31 -37 l13 -29 20 47 c12 26 23 66 25 89 2 23 11
47 19 53 8 6 18 22 22 34 5 13 10 21 13 18 3 -3 -2 -23 -11 -46 -17 -44 -21
-63 -7 -41 16 26 34 -27 28 -83 -7 -56 -4 -53 13 12 l11 43 30 -40 c16 -23 29
-49 29 -58 0 -10 -14 4 -30 32 -16 28 -30 46 -30 40 0 -5 9 -25 20 -43 28 -45
25 -70 -14 -154 -50 -106 -85 -192 -80 -197 5 -5 3 -9 42 69 26 51 32 58 28
32 -3 -18 -2 -31 3 -28 8 5 19 48 26 108 2 15 10 40 18 55 8 15 22 52 31 82
14 48 14 52 0 40 -13 -11 -15 -10 -13 2 1 7 -18 35 -44 62 -48 49 -54 65 -37
97 5 10 6 28 2 40 -7 19 -9 18 -26 -17 l-18 -38 -21 43 c-12 23 -25 42 -29 42
-5 0 3 -22 17 -49 14 -28 21 -52 17 -55 -14 -9 -54 25 -48 41 3 8 2 12 -3 8
-5 -3 -29 14 -53 38 -66 66 -75 72 -93 57 -18 -15 -14 -24 -51 130 -14 63 -32
122 -39 130 -7 8 -17 29 -23 45 -8 22 -11 25 -11 10z m180 -351 l34 -37 -42
28 c-24 15 -43 32 -43 36 0 17 17 8 51 -27z m35 -61 c27 -25 56 -47 64 -47 21
-1 23 -27 10 -91 -14 -66 -33 -63 -25 3 l6 47 -58 45 c-34 27 -59 55 -61 68
-5 33 10 27 64 -25z m11 -510 c-2 -21 -4 -6 -4 32 0 39 2 55 4 38 2 -18 2 -50
0 -70z m153 -73 c-6 -11 -7 -20 -3 -20 4 0 -7 -9 -25 -20 -18 -11 -39 -20 -48
-20 -8 0 -26 -11 -39 -25 -14 -13 -25 -19 -25 -12 0 21 104 115 128 116 20 1
21 -2 12 -19z m-157 -125 c-3 -9 -8 -14 -10 -11 -3 3 -2 9 2 15 9 16 15 13 8
-4z"/>
<path d="M1158 833 c-10 -2 -18 -8 -18 -13 0 -4 9 -6 20 -3 11 3 20 9 20 14 0
5 -1 8 -2 8 -2 -1 -11 -3 -20 -6z"/>
<path d="M1652 1825 c0 -16 2 -22 5 -12 2 9 2 23 0 30 -3 6 -5 -1 -5 -18z"/>
<path d="M1761 1824 c0 -11 3 -14 6 -6 3 7 2 16 -1 19 -3 4 -6 -2 -5 -13z"/>
<path d="M1646 1782 c5 -4 12 -11 15 -15 3 -5 9 -2 12 5 3 9 -3 14 -15 15 -11
1 -16 -1 -12 -5z"/>
<path d="M684 1750 c4 -14 9 -37 12 -51 5 -21 38 -49 57 -49 1 0 2 13 3 30 1
16 -3 27 -7 24 -5 -3 -9 -12 -9 -21 0 -13 -3 -13 -15 -3 -18 15 -16 56 2 53 6
-2 11 6 10 17 -1 23 -8 25 -25 8 -10 -10 -15 -10 -23 2 -8 12 -9 9 -5 -10z"/>
<path d="M1792 1740 c0 -14 2 -19 5 -12 2 6 2 18 0 25 -3 6 -5 1 -5 -13z"/>
<path d="M541 1735 c-1 -12 62 -92 86 -111 12 -9 14 -13 5 -14 -8 0 -27 13
-43 30 -26 25 -31 27 -35 12 -3 -9 -11 -33 -18 -52 -16 -45 -2 -112 21 -103
11 4 14 2 11 -8 -3 -8 -13 -14 -24 -14 -15 0 -20 9 -24 40 -3 22 -9 46 -14 53
-4 7 -2 20 5 30 12 16 12 16 -5 1 -16 -15 -16 -22 -5 -78 13 -62 14 -63 45
-59 18 2 31 -1 30 -7 -3 -22 -18 -35 -42 -35 -28 0 -28 1 -10 -40 9 -23 24
-37 47 -44 29 -10 34 -17 44 -59 5 -27 13 -46 17 -42 4 4 15 -6 25 -24 10 -17
21 -31 24 -31 8 0 21 85 20 133 0 20 3 37 8 37 10 0 20 21 31 67 7 31 7 31
-35 35 -40 3 -42 2 -27 -13 10 -9 18 -12 20 -8 2 5 10 9 18 9 18 0 9 -45 -17
-78 -12 -16 -16 -33 -12 -62 4 -26 2 -40 -6 -40 -6 0 -11 11 -11 25 0 14 -5
25 -11 25 -8 0 -9 -11 -5 -32 5 -31 5 -32 -9 -14 -8 11 -15 27 -16 35 0 9 -2
26 -3 38 -2 13 4 23 14 26 22 6 31 51 16 83 -11 24 -40 32 -50 15 -4 -5 2 -7
13 -4 13 3 20 -2 26 -19 7 -23 7 -49 -1 -57 -8 -8 -45 33 -40 45 2 6 0 16 -6
22 -17 17 -1 44 24 42 13 -1 32 -1 43 0 l20 1 -20 9 c-19 8 -19 9 -1 9 17 1
18 6 12 54 -4 28 -13 54 -19 56 -15 5 -88 80 -104 106 -6 11 -12 16 -12 10z
m101 -172 c5 -19 1 -31 -17 -49 -20 -20 -26 -22 -49 -11 -28 14 -37 52 -22
103 l9 32 36 -25 c20 -13 39 -36 43 -50z m18 22 c0 -14 -2 -25 -4 -25 -2 0 -6
11 -8 25 -3 14 -1 25 3 25 5 0 9 -11 9 -25z m-55 -192 l18 -28 -27 24 c-14 14
-26 20 -26 14 0 -5 9 -18 20 -28 27 -25 25 -32 -9 -27 -37 5 -59 46 -33 61 27
16 38 13 57 -16z"/>
<path d="M1826 1715 c-3 -8 -1 -15 4 -15 6 0 10 7 10 15 0 8 -2 15 -4 15 -2 0
-6 -7 -10 -15z"/>
<path d="M1739 1689 c-16 -17 -29 -36 -29 -42 0 -6 1 -8 3 -6 1 2 18 21 36 42
19 20 31 37 27 37 -4 0 -21 -14 -37 -31z"/>
<path d="M770 1665 c0 -27 2 -46 4 -44 8 8 10 78 3 85 -4 4 -7 -14 -7 -41z"/>
<path d="M532 1665 c0 -16 2 -22 5 -12 2 9 2 23 0 30 -3 6 -5 -1 -5 -18z"/>
<path d="M4313 1683 c13 -3 16 -11 12 -26 -6 -21 -6 -21 9 -3 19 23 12 36 -17
35 -18 -1 -18 -2 -4 -6z"/>
<path d="M4282 1621 c-18 -3 -33 -10 -33 -16 1 -12 -78 -135 -85 -135 -3 0 -4
28 -2 62 3 65 -9 85 -28 44 -8 -16 -8 -40 -1 -77 15 -83 17 -87 29 -64 6 11
26 36 45 57 20 20 32 41 29 46 -8 13 41 72 59 72 8 0 17 5 20 10 3 6 5 9 3 9
-2 -1 -18 -4 -36 -8z"/>
<path d="M3423 1606 c-7 -8 -17 -16 -24 -18 -8 -3 -14 -40 -17 -116 -3 -67 -8
-109 -14 -106 -5 4 -9 25 -7 48 3 64 -3 76 -11 21 -7 -46 -5 -52 21 -80 18
-19 29 -43 30 -60 1 -30 1 -30 9 -5 8 24 8 23 9 -8 1 -18 8 -43 17 -57 8 -13
18 -49 21 -80 3 -30 9 -58 14 -60 4 -3 2 -19 -4 -36 -12 -30 -10 -33 31 -68
31 -27 41 -42 36 -54 -7 -19 23 -60 37 -52 15 10 19 -14 4 -28 -13 -14 -11
-18 16 -42 17 -14 29 -28 26 -32 -4 -3 0 -21 8 -40 21 -50 19 -53 -10 -10 -14
20 -28 37 -31 37 -2 0 -9 -12 -14 -26 -8 -21 -6 -32 11 -55 12 -17 23 -48 26
-69 3 -22 12 -45 19 -51 22 -18 17 -49 -7 -49 -21 0 -22 -4 -17 -68 4 -55 4
-59 -3 -24 -27 132 -27 129 -28 97 0 -16 6 -60 13 -97 8 -36 13 -81 11 -100
-3 -24 1 -17 17 26 19 54 22 58 34 41 8 -10 14 -33 14 -50 0 -27 3 -31 28 -29
41 2 42 3 42 20 0 9 10 32 21 51 l21 34 21 -41 c12 -23 23 -36 25 -30 2 6 -3
21 -11 34 -10 14 -13 33 -10 47 6 20 9 17 24 -26 20 -57 24 -89 9 -80 -5 3
-10 -3 -10 -13 0 -11 -21 -43 -47 -72 -43 -48 -48 -51 -60 -34 -11 15 -17 16
-33 6 -16 -10 -22 -8 -39 17 -25 35 -26 56 -5 106 8 20 13 40 10 43 -3 2 -9
-4 -12 -14 -24 -67 -43 -107 -43 -93 -1 9 -8 19 -16 23 -20 7 -19 4 10 -54 14
-27 25 -62 25 -77 0 -38 24 -49 85 -42 28 3 40 7 28 7 -12 1 -24 8 -27 15 -5
9 -7 9 -12 0 -3 -7 -11 -13 -18 -13 -15 0 -69 107 -57 114 9 6 41 -57 41 -82
1 -12 6 -8 16 11 15 27 16 28 32 10 10 -10 27 -27 40 -37 l23 -20 69 74 c44
47 65 77 58 81 -8 5 -8 24 -1 70 7 44 7 69 0 80 -8 13 -5 26 11 53 23 39 30
82 11 71 -6 -4 -8 -13 -5 -21 3 -7 0 -16 -6 -20 -7 -5 -8 -2 -3 6 5 8 4 11 -3
6 -6 -4 -8 -14 -5 -23 4 -10 2 -14 -5 -9 -6 3 -14 1 -18 -5 -4 -8 -3 -9 5 -5
11 7 9 -17 -5 -63 -2 -7 0 -19 5 -25 13 -15 -4 -45 -18 -31 -16 18 -29 99 -17
118 8 12 5 31 -8 72 -16 44 -17 60 -8 80 15 32 15 45 2 45 -5 0 -10 -7 -10
-15 0 -16 -12 -38 -57 -107 -26 -38 -66 -60 -56 -29 3 10 2 12 -4 5 -9 -12
-45 -15 -37 -3 2 4 -4 24 -15 45 -11 20 -17 42 -15 49 3 7 -6 32 -21 54 -14
23 -23 46 -19 52 7 13 55 -61 79 -124 10 -26 22 -50 26 -53 4 -2 23 9 42 25
36 32 78 112 62 118 -6 2 -8 25 -7 51 2 27 -1 74 -7 104 -7 38 -7 68 0 90 5
18 12 76 16 129 6 95 5 97 -22 134 -23 29 -29 49 -31 96 -3 53 -7 62 -43 101
-41 42 -50 72 -32 107 8 14 2 20 -37 34 -38 14 -43 14 -28 2 11 -8 26 -15 34
-15 10 0 12 -7 8 -22 -3 -13 -6 -48 -6 -78 0 -34 -4 -50 -9 -42 -4 8 -7 31 -6
52 2 33 -4 44 -36 76 -22 21 -39 34 -39 30 0 -4 -21 13 -47 38 -49 49 -61 53
-80 32z m151 -102 c3 -8 2 -12 -4 -9 -6 3 -10 10 -10 16 0 14 7 11 14 -7z
m-49 -102 c2 -18 17 -52 24 -52 4 0 8 -19 9 -42 l2 -43 -25 30 c-20 23 -25 39
-23 73 2 23 0 42 -4 42 -5 0 -8 -5 -8 -12 0 -6 -3 -9 -6 -5 -4 3 -4 14 0 23 5
14 9 15 19 5 7 -7 12 -15 12 -19z m82 -64 c13 -12 23 -32 23 -45 0 -39 -24
-163 -31 -163 -4 0 -39 30 -78 68 l-72 67 12 40 11 39 43 -46 c49 -54 65 -49
57 18 -5 49 1 54 35 22z m127 -185 c3 -25 3 -50 -1 -56 -3 -6 -6 -119 -5 -251
2 -226 1 -243 -18 -271 l-20 -30 -1 30 c-1 17 -1 55 0 85 5 128 -54 275 -151
376 -42 45 -60 72 -65 98 -3 20 -3 36 -1 36 3 0 26 -27 52 -59 48 -61 135
-138 124 -110 -3 9 0 45 8 80 7 35 13 81 14 101 0 20 3 44 7 54 6 15 9 14 28
-11 13 -15 25 -48 29 -72z m51 -57 c-3 -32 -5 -77 -5 -100 l0 -41 -15 29 c-10
19 -15 58 -15 125 l0 96 21 -25 c17 -21 19 -34 14 -84z m-216 -4 l33 -47 -32
35 c-17 19 -41 49 -53 65 -20 29 -20 29 -1 12 12 -9 35 -38 53 -65z m71 -19
c-10 -16 -11 -15 -6 7 3 14 6 34 7 45 1 13 3 11 6 -7 2 -15 -1 -35 -7 -45z
m-131 -57 c26 -42 26 -50 1 -36 -24 13 -43 47 -35 60 9 15 11 13 34 -24z m55
-125 c-6 -6 -24 19 -24 34 1 6 7 1 15 -9 8 -11 12 -22 9 -25z m40 -67 c5 -14
4 -15 -9 -4 -17 14 -19 20 -6 20 5 0 12 -7 15 -16z m157 -191 c-12 -20 -14
-14 -5 12 4 9 9 14 11 11 3 -2 0 -13 -6 -23z m47 -98 c17 -37 15 -44 -19 -76
-32 -30 -61 -41 -39 -14 7 8 10 29 7 47 -3 22 1 39 11 51 20 23 27 22 40 -8z
m-140 -78 c-12 -52 -12 -53 -32 -23 -20 32 -5 76 24 69 15 -4 16 -10 8 -46z
m19 -9 c-3 -7 -5 -2 -5 12 0 14 2 19 5 13 2 -7 2 -19 0 -25z m-10 -40 c-3 -8
-6 -5 -6 6 -1 11 2 17 5 13 3 -3 4 -12 1 -19z m177 -136 c6 -11 -111 -128
-120 -119 -7 7 94 127 107 127 4 0 10 -4 13 -8z"/>
<path d="M3652 965 c0 -11 4 -31 8 -45 6 -20 8 -21 8 -5 0 11 -4 31 -8 45 -6
20 -8 21 -8 5z"/>
<path d="M3671 853 c0 -4 4 -17 9 -28 8 -19 9 -19 9 2 1 12 -3 25 -9 28 -5 3
-10 3 -9 -2z"/>
<path d="M3692 775 c0 -16 2 -22 5 -12 2 9 2 23 0 30 -3 6 -5 -1 -5 -18z"/>
<path d="M5396 1568 c-3 -13 -5 -34 -5 -48 1 -15 5 -7 10 19 9 47 6 68 -5 29z"/>
<path d="M841 1480 l1 -45 8 35 c5 20 5 39 -1 45 -5 5 -9 -8 -8 -35z"/>
<path d="M5300 1510 c0 -5 5 -10 11 -10 5 0 7 5 4 10 -3 6 -8 10 -11 10 -2 0
-4 -4 -4 -10z"/>
<path d="M3097 1487 c-4 -10 -3 -26 2 -34 11 -21 19 -4 11 27 -5 22 -7 23 -13
7z"/>
<path d="M3085 1384 c28 -69 28 -71 11 -138 -9 -38 -32 -98 -50 -134 -39 -78
-80 -209 -96 -304 -11 -63 -41 -115 -59 -103 -5 2 -16 -4 -25 -14 -14 -15 -15
-24 -6 -40 6 -12 18 -21 26 -21 24 0 10 -42 -35 -109 -34 -49 -84 -100 -156
-156 -18 -15 -17 -15 12 0 18 8 47 15 64 15 20 0 42 9 57 23 22 20 24 20 14 2
-18 -36 -45 -52 -127 -79 l-80 -25 -32 34 c-21 22 -33 29 -33 20 0 -9 7 -18
15 -22 20 -7 53 -67 33 -61 -7 3 -19 15 -25 29 -12 22 -13 22 -13 3 0 -26 55
-67 89 -66 106 5 216 21 225 34 6 8 23 30 38 49 l27 34 11 -32 c6 -17 18 -34
27 -37 13 -5 14 -4 3 9 -10 12 -9 16 4 21 9 3 23 1 31 -6 13 -11 13 -14 -2
-26 -27 -20 3 -18 38 3 25 15 31 16 39 4 7 -12 11 -13 25 -1 19 16 35 44 40
70 2 11 22 46 44 78 42 62 101 160 101 167 0 2 -19 -4 -42 -14 -80 -33 -138
-45 -151 -31 -9 9 -7 15 11 27 15 11 22 25 22 48 0 26 -5 35 -29 44 -24 11
-28 17 -25 48 2 27 0 33 -9 24 -6 -6 -12 -24 -13 -39 -1 -15 -8 -40 -15 -57
-7 -16 -11 -34 -10 -39 1 -5 -5 -6 -14 -2 -9 3 -13 2 -10 -4 3 -6 -1 -13 -10
-16 -12 -5 -13 -9 -5 -14 14 -9 -31 -80 -74 -117 -25 -22 -96 -33 -96 -15 0
16 47 82 73 102 17 14 27 31 27 48 0 29 35 94 47 90 5 -2 28 16 52 40 24 23
51 42 61 42 12 0 19 11 24 38 10 60 8 65 -18 58 -21 -5 -23 -3 -18 22 3 15 16
38 28 51 25 25 31 41 14 41 -5 0 2 11 15 25 27 26 32 45 13 45 -7 0 5 18 26
39 21 22 35 44 32 50 -4 6 -2 20 4 31 10 18 1 35 -58 122 -38 56 -75 104 -82
106 -9 3 -11 -1 -5 -14z m107 -277 c-21 -23 -92 -52 -92 -39 0 8 90 60 104 61
5 1 0 -10 -12 -22z m-41 -87 c-13 -11 -35 -20 -49 -20 -32 0 -27 5 23 23 53
19 54 19 26 -3z m-23 -62 c-4 -12 -58 -31 -66 -23 -4 4 48 34 61 35 5 0 7 -5
5 -12z m-13 -140 c-4 -18 -8 -33 -9 -34 0 0 -13 -8 -28 -17 -36 -23 -43 -22
-56 9 -13 26 -1 64 19 64 6 0 7 -4 4 -10 -9 -15 7 -12 29 5 34 26 48 19 41
-17z m-122 -100 c-35 -37 -103 -72 -115 -60 -6 6 7 21 35 41 25 17 56 45 68
63 l22 31 9 -23 c7 -19 3 -29 -19 -52z m-54 -110 c0 -25 -9 -40 -36 -63 l-36
-29 27 49 c14 27 26 56 26 62 0 7 5 13 10 13 6 0 10 -15 9 -32z m151 22 c0 -5
-7 -10 -16 -10 -8 0 -12 5 -9 10 3 6 10 10 16 10 5 0 9 -4 9 -10z m12 -49 c6
-16 5 -21 -5 -18 -6 2 -27 -4 -44 -15 -18 -11 -33 -15 -33 -9 0 5 5 13 11 16
6 4 8 14 5 22 -3 8 -2 12 3 9 5 -3 14 1 21 9 17 20 31 15 42 -14z m178 -7 c0
-12 -89 -43 -135 -47 -55 -4 -104 -24 -150 -61 -27 -21 -28 -26 -17 -50 16
-36 1 -33 -20 4 l-17 29 61 46 c33 25 63 45 66 46 4 0 39 2 77 3 42 2 82 9
100 19 35 19 35 19 35 11z m-35 -53 c-3 -6 -11 -8 -17 -5 -7 5 -9 1 -5 -9 4
-10 2 -16 -6 -14 -7 1 -11 -6 -10 -16 0 -10 -2 -16 -5 -13 -3 4 -15 -3 -28
-15 l-22 -20 -7 37 c-4 26 -3 39 7 45 11 8 59 14 81 10 4 0 7 4 7 11 0 6 3 9
6 5 3 -3 3 -11 -1 -16z m-121 -33 c4 -24 1 -26 -52 -37 -30 -6 -65 -11 -76
-11 -21 1 -21 1 -1 16 21 17 117 65 121 61 2 -1 5 -14 8 -29z m-279 -30 c-8
-27 -44 -68 -58 -68 -6 0 -1 10 10 23 11 12 26 32 32 45 6 12 14 22 17 22 3 0
2 -10 -1 -22z m344 -25 c-40 -53 -99 -96 -99 -73 0 6 6 10 13 10 7 0 31 18 52
40 41 42 57 52 34 23z m-258 -13 c5 0 -14 -29 -43 -65 -46 -58 -56 -65 -87
-65 l-35 0 25 28 c14 15 32 35 40 45 36 48 61 68 75 63 9 -3 20 -6 25 -6z m79
-64 c0 -16 -18 -31 -27 -22 -8 8 5 36 17 36 5 0 10 -6 10 -14z m-235 -36 c-17
-27 -97 -45 -135 -30 -6 2 109 37 128 39 7 0 10 -3 7 -9z"/>
<path d="M6494 1375 c-4 -8 -10 -12 -15 -9 -5 3 -9 0 -9 -5 0 -18 19 -12 30 9
6 11 8 20 5 20 -3 0 -8 -7 -11 -15z"/>
<path d="M3065 1359 c-4 -6 -5 -12 -2 -15 2 -3 7 2 10 11 7 17 1 20 -8 4z"/>
<path d="M1209 958 c-5 -17 -4 -48 3 -48 4 0 8 11 8 25 0 20 -7 34 -11 23z"/>
<path d="M3111 894 c0 -11 3 -14 6 -6 3 7 2 16 -1 19 -3 4 -6 -2 -5 -13z"/>
<path d="M3822 770 c0 -17 -3 -39 -7 -49 -3 -11 -2 -22 3 -25 9 -5 22 46 22
87 0 30 -17 18 -18 -13z"/>
<path d="M1375 700 c-10 -11 -15 -20 -12 -20 3 0 -5 -26 -19 -57 -30 -67 -19
-61 21 12 15 28 31 55 37 62 16 20 -9 23 -27 3z"/>
<path d="M1637 692 c-10 -10 -17 -32 -17 -48 1 -44 34 -167 47 -171 9 -3 9 5
2 29 -13 45 -11 92 3 106 9 9 8 12 -5 12 -9 0 -17 -8 -18 -17 0 -10 -5 -4 -10
12 -5 17 -6 38 -3 48 6 18 6 18 19 0 13 -16 14 -15 12 14 -2 38 -7 40 -30 15z"/>
<path d="M1764 676 c-7 -18 14 -58 27 -51 13 9 11 25 -3 23 -8 -2 -13 7 -12
20 1 25 -4 29 -12 8z"/>
<path d="M1297 621 c-36 -23 -48 -37 -19 -22 12 7 27 9 32 6 5 -3 14 4 20 15
13 24 4 24 -33 1z"/>
<path d="M1295 579 c-4 -6 -5 -12 -2 -15 2 -3 7 2 10 11 7 17 1 20 -8 4z"/>
<path d="M5756 517 c3 -10 9 -15 12 -12 3 3 0 11 -7 18 -10 9 -11 8 -5 -6z"/>
<path d="M1822 483 c-5 -10 -12 -34 -16 -53 -6 -31 -4 -29 14 14 20 47 21 76
2 39z"/>
<path d="M1917 446 l15 -54 -36 -36 c-42 -43 -58 -45 -85 -10 -12 15 -21 22
-21 17 0 -5 6 -15 13 -21 6 -7 12 -18 12 -25 0 -7 6 -13 13 -13 6 -1 15 -2 19
-3 3 0 -2 -11 -13 -24 -10 -13 8 6 41 41 47 49 63 61 72 51 9 -9 11 -7 6 12
-4 13 -12 35 -20 49 -7 14 -13 33 -13 42 0 9 -4 19 -9 23 -5 3 -3 -19 6 -49z"/>
<path d="M710 470 c0 -5 5 -10 12 -10 7 0 28 -15 48 -32 l35 -33 -30 33 c-34
38 -65 58 -65 42z"/>
<path d="M1259 422 c-6 -17 -25 -40 -42 -51 -39 -25 -27 -28 14 -4 26 16 56
70 44 81 -3 3 -10 -9 -16 -26z"/>
<path d="M726 420 c8 -31 42 -80 55 -80 5 0 9 8 9 18 0 12 -3 14 -8 4 -6 -8
-17 2 -36 35 -15 27 -24 37 -20 23z"/>
<path d="M1646 378 c4 -7 20 -32 36 -55 15 -23 32 -52 38 -65 l9 -23 0 23 c1
13 6 33 12 44 8 15 8 19 0 14 -7 -5 -11 3 -12 21 l-1 28 -13 -29 -12 -30 -27
42 c-14 23 -29 42 -32 42 -3 0 -2 -6 2 -12z m84 -78 c0 -5 -4 -10 -10 -10 -5
0 -10 5 -10 10 0 6 5 10 10 10 6 0 10 -4 10 -10z"/>
<path d="M2645 340 c-3 -6 1 -7 9 -4 18 7 21 14 7 14 -6 0 -13 -4 -16 -10z"/>
</g>
</svg>
